<?xml version="1.0" encoding="utf-8"?>
<svg id="master-artboard" viewBox="0 0 542.728271484375 956.4161376953125" version="1.1" xmlns="http://www.w3.org/2000/svg" x="0px" y="0px" style="enable-background:new 0 0 336 235.2;" width="542.728271484375px" height="956.4161376953125px"><rect id="ee-background" x="0" y="0" width="542.728271484375" height="956.4161376953125" style="fill: white; fill-opacity: 0; pointer-events: none;"/><g transform="matrix(0.9447724349472955, 0, 0, 0.9447724349472955, -75.35194979932098, -7.5873140041596)"><path d="M 84 511.500 L 84 1014 368 1014 L 652 1014 652 511.500 L 652 9 368 9 L 84 9 84 511.500 M 85 511 L 85 1012 367.500 1012 L 650 1012 650 511 L 650 10 367.500 10 L 85 10 85 511 M 279 56 C 279 57.733, 278.333 58, 274 58 C 271.250 58, 269 58.450, 269 59 C 269 59.550, 271.277 60, 274.059 60 C 280.169 60, 279.795 61.608, 273.464 62.558 C 268.606 63.286, 267.716 63.923, 268.893 65.826 C 269.474 66.767, 270.698 66.588, 274.077 65.067 L 278.500 63.077 278.827 65.096 C 279.470 69.065, 281.509 66.241, 282.011 60.686 C 282.388 56.506, 282.171 54.896, 281.179 54.515 C 279.150 53.737, 279 53.839, 279 56 M 285.688 54.646 C 284.838 55.496, 284.782 62.268, 285.607 64.418 C 285.941 65.288, 286.814 66, 287.548 66 C 288.282 66, 289.192 66.502, 289.572 67.116 C 290.064 67.912, 288.074 68.121, 282.631 67.846 L 275 67.461 275 76.231 C 275 83.359, 275.281 85, 276.500 85 C 277.548 85, 278 83.944, 278 81.500 L 278 78 284 78 C 289.268 78, 290 78.236, 290 79.937 C 290 81.381, 289.174 81.965, 286.750 82.233 L 283.500 82.593 286.500 83.874 C 291.211 85.887, 292.421 84.408, 293.024 75.897 C 293.323 71.685, 293.137 68.211, 292.593 67.829 C 292.068 67.460, 293.273 66.852, 295.271 66.477 C 298.522 65.867, 298.882 65.491, 298.702 62.900 C 298.468 59.545, 297.416 59.115, 296.500 62 C 296.007 63.553, 294.987 64, 291.933 64 C 285.943 64, 286.915 61.580, 293.544 59.989 C 298.325 58.842, 298.893 58.465, 297.672 57.244 C 296.452 56.023, 295.678 56.124, 292.049 57.975 L 287.841 60.122 288.170 57.398 C 288.489 54.769, 287.102 53.231, 285.688 54.646 M 331.681 55.653 C 331.284 56.050, 325.118 56.286, 317.979 56.179 C 309.790 56.055, 305 56.355, 305 56.991 C 305 57.573, 307.943 58, 311.948 58 L 318.896 58 317.807 61.123 C 316.757 64.136, 316.558 64.226, 312.109 63.701 L 307.500 63.156 307.500 74.079 C 307.500 81.862, 307.842 85.001, 308.691 85.001 C 309.346 85, 310.160 84.550, 310.500 84 C 310.845 83.442, 315.510 83, 321.059 83 C 327.020 83, 331 83.400, 331 84 C 331 84.550, 331.675 85, 332.500 85 C 333.718 85, 334.028 83.211, 334.150 75.500 C 334.233 70.275, 334.345 65.438, 334.400 64.750 C 334.474 63.820, 332.494 63.592, 326.669 63.857 L 318.838 64.215 320.444 61.107 C 322.012 58.076, 322.224 58, 329.109 58 C 334.310 58, 336.057 57.671, 335.750 56.750 C 335.265 55.291, 332.727 54.607, 331.681 55.653 M 311 73.213 C 311 80.333, 311.171 81, 313 81 C 314.832 81, 315 80.333, 315 73.062 C 315 65.741, 314.845 65.136, 313 65.275 C 311.184 65.412, 311 66.142, 311 73.213 M 318 67.200 C 318 68.453, 318.759 69, 320.500 69 C 322.241 69, 323 68.453, 323 67.200 C 323 65.947, 322.241 65.400, 320.500 65.400 C 318.759 65.400, 318 65.947, 318 67.200 M 326 73.011 C 326 80.866, 326.042 81, 328.500 81 C 330.952 81, 331 80.852, 331 73.218 C 331 65.639, 330.935 65.431, 328.500 65.229 C 326.025 65.024, 326 65.101, 326 73.011 M 278 71 C 278 71.556, 280.667 72, 284 72 C 287.333 72, 290 71.556, 290 71 C 290 70.444, 287.333 70, 284 70 C 280.667 70, 278 70.444, 278 71 M 318 72.800 C 318 74.053, 318.759 74.600, 320.500 74.600 C 322.241 74.600, 323 74.053, 323 72.800 C 323 71.547, 322.241 71, 320.500 71 C 318.759 71, 318 71.547, 318 72.800 M 278 75.500 C 278 76.667, 279.333 77, 284 77 C 288.667 77, 290 76.667, 290 75.500 C 290 74.333, 288.667 74, 284 74 C 279.333 74, 278 74.333, 278 75.500 M 318 78.500 C 318 80.500, 318.500 81, 320.500 81 C 322.500 81, 323 80.500, 323 78.500 C 323 76.500, 322.500 76, 320.500 76 C 318.500 76, 318 76.500, 318 78.500 M 371 120.981 C 371 121.520, 372.238 122.241, 373.750 122.581 C 384.168 124.927, 386.553 126.267, 393.188 133.500 C 397.453 138.150, 400.358 147.992, 399.960 156.444 C 399.777 160.325, 399.541 168.225, 399.435 174 C 399.212 186.201, 397.789 196.827, 395.618 202.500 C 394.776 204.700, 394.068 207.067, 394.044 207.761 C 394.020 208.454, 393.164 210.929, 392.142 213.261 C 391.120 215.592, 389.855 218.625, 389.332 220 C 387.822 223.970, 389.088 243.246, 390.750 241.584 C 391.091 241.242, 391.256 236.670, 391.116 231.422 C 390.878 222.499, 391.091 221.320, 394.410 213.191 C 396.361 208.411, 398.124 203.600, 398.329 202.500 C 398.533 201.400, 398.948 199.825, 399.251 199 C 401.593 192.636, 402.461 181.095, 401.958 163 C 401.506 146.719, 401.105 142.840, 399.527 139.500 C 395.148 130.233, 388.381 124.235, 379.143 121.431 C 373.674 119.771, 371 119.623, 371 120.981 M 362.390 122.527 C 358.312 124.316, 348.839 133.016, 347.019 136.644 C 346.231 138.215, 345.045 140.175, 344.383 141 C 343.721 141.825, 342.426 145.109, 341.505 148.297 C 340.105 153.143, 339.913 157.245, 340.335 173.297 C 340.612 183.859, 341.045 193.625, 341.297 195 C 342.549 201.832, 344.690 208.153, 347.902 214.500 C 351.427 221.466, 351.442 221.556, 351.141 233 C 350.909 241.794, 351.115 244.231, 352.013 243.356 C 352.749 242.639, 353.246 238.159, 353.344 231.356 C 353.479 221.941, 353.220 220.027, 351.395 216.938 C 347.542 210.419, 343.744 197.074, 343.083 187.733 C 342.737 182.840, 342.689 178.703, 342.977 178.539 C 343.428 178.281, 349.071 178.365, 366.299 178.885 L 370.098 179 369.836 199.500 C 369.610 217.100, 369.356 220.016, 368.036 220.112 C 359.490 220.734, 355 221.715, 355 222.961 C 355 223.494, 358.016 223.631, 362.149 223.284 L 369.299 222.685 368.652 247.092 C 368.173 265.170, 367.878 353.162, 368.208 379.500 C 368.291 386.203, 366.928 412.438, 366.383 414.609 C 366.014 416.079, 366.188 417.498, 366.781 417.865 C 367.500 418.309, 367.561 422.156, 366.974 430.007 C 366.195 440.418, 365.263 460.558, 364.959 473.500 L 364.842 478.500 363.368 474.341 C 361.578 469.290, 348.534 455.527, 342 451.794 C 336.087 448.416, 331.318 447.673, 324.033 448.994 C 313.035 450.988, 303.065 457.086, 300.727 463.250 C 300.362 464.212, 299.571 465, 298.970 465 C 297.745 465, 298.278 459.854, 300.676 448.500 C 303.059 437.222, 307 427.400, 307 432.741 C 307 433.919, 307.430 435.148, 307.956 435.473 C 308.482 435.798, 308.673 436.837, 308.381 437.782 C 307.907 439.312, 307.974 439.306, 308.992 437.719 C 309.789 436.476, 309.839 434.965, 309.157 432.719 C 308.619 430.948, 307.918 428.312, 307.598 426.860 C 307.279 425.408, 306.309 423.949, 305.443 423.617 C 304.233 423.152, 304.015 423.472, 304.501 425.003 C 305.066 426.783, 302.235 436.624, 299.818 441.286 C 298.440 443.941, 295.977 460.267, 296.127 465.736 C 296.200 468.356, 295.044 474.775, 293.559 480 C 288.533 497.682, 287.074 506.320, 287.023 518.696 C 286.971 531.582, 287.323 536.656, 288.340 537.673 C 288.703 538.036, 289.024 534.546, 289.054 529.917 L 289.108 521.500 290.896 527.091 C 293.987 536.752, 302.299 546.888, 307.652 547.524 C 309.218 547.710, 312.940 548.563, 315.921 549.419 C 328.833 553.126, 345.984 552.110, 355.903 547.049 L 360.300 544.806 359.639 550.653 C 359.077 555.622, 357.862 568.823, 355.557 595 C 355.290 598.025, 354.813 605.450, 354.497 611.500 C 354.180 617.550, 353.729 623.850, 353.494 625.500 C 353.260 627.150, 352.815 635.925, 352.505 645 C 352.196 654.075, 351.733 663.300, 351.476 665.500 C 351.219 667.700, 350.772 672.200, 350.482 675.500 C 350.191 678.800, 349.559 683.750, 349.077 686.500 C 348.595 689.250, 348.221 693.525, 348.246 696 C 348.276 698.977, 347.889 700.411, 347.103 700.236 C 346.214 700.038, 346.189 700.484, 347.003 702.006 C 347.602 703.126, 347.849 704.434, 347.553 704.915 C 346.814 706.110, 345.659 720.276, 345.757 726.928 C 345.810 730.520, 345.532 731.872, 344.934 730.928 C 344.196 729.761, 344.028 729.820, 344.015 731.250 C 344.007 732.212, 344.463 733, 345.028 733 C 345.680 733, 345.856 735.283, 345.509 739.250 C 345.208 742.688, 344.488 754.725, 343.909 766 C 342.292 797.455, 340.804 812.371, 338.471 820.500 C 337.682 823.250, 336.322 828.425, 335.449 832 C 333.485 840.041, 331.409 846.327, 329.559 849.828 C 327.153 854.383, 320.965 860, 318.353 860 C 313.825 860, 306.666 855.410, 302.513 849.844 C 300.321 846.905, 298.242 844.275, 297.894 844 C 297.546 843.725, 296.102 840.034, 294.685 835.798 C 291.322 825.743, 289.654 813.644, 290.992 809.007 C 291.546 807.085, 292 805.083, 292 804.557 C 292 803.011, 290.251 805.262, 289.713 807.500 C 289.428 808.687, 289.195 808.077, 289.140 806 C 289.089 804.075, 289.516 800.700, 290.088 798.500 C 290.660 796.300, 291.553 792.499, 292.071 790.052 C 292.589 787.606, 293.461 784.231, 294.008 782.552 C 297.679 771.284, 298.898 766.644, 298.399 765.837 C 298.085 765.328, 298.252 764.370, 298.771 763.706 C 299.290 763.043, 300.258 759.037, 300.921 754.803 C 302.089 747.355, 302.032 746.805, 299.129 737.743 C 295.737 727.155, 292.437 713.689, 291.594 707 C 291.282 704.525, 290.801 701.375, 290.525 700 C 290.249 698.625, 290.906 700.108, 291.985 703.296 C 295.570 713.885, 301.609 725.416, 307.283 732.501 C 313.050 739.705, 317.081 742.781, 322.431 744.061 C 325.358 744.761, 325.378 744.800, 322.872 744.898 C 319.008 745.048, 313.837 747.465, 311.076 750.413 C 308.198 753.484, 309.647 753.852, 313.301 750.978 C 316.761 748.256, 325.476 746.700, 329.993 747.997 C 335.158 749.480, 336.791 749.309, 334.441 747.532 C 333.374 746.724, 331.514 746.049, 330.309 746.032 C 326.900 745.982, 326.685 744.305, 329.942 743.170 C 332.516 742.273, 339 734.972, 339 732.972 C 339 732.572, 339.749 730.502, 340.664 728.372 C 341.580 726.242, 342.407 723.825, 342.504 723 C 342.600 722.175, 343.048 719.925, 343.500 718 C 344.394 714.183, 344.675 712.538, 345.464 706.500 C 346.213 700.758, 345.455 702.936, 342.097 716.174 C 337.999 732.330, 334.702 738.802, 329.369 741.161 C 323.060 743.952, 320.045 742.854, 312.754 735.107 C 300.682 722.280, 291.483 701.959, 288.066 680.572 C 287.532 677.232, 286.647 672.109, 286.098 669.186 C 285.087 663.803, 284.948 660.484, 284.978 642.500 C 284.987 637, 284.742 624.850, 284.433 615.500 C 283.531 588.191, 285.906 560.724, 290.593 544.250 C 290.976 542.902, 290.797 542, 290.145 542 C 288.641 542, 286.491 550.148, 283.971 565.398 C 282.192 576.158, 281.845 582.372, 281.875 602.898 C 281.914 629.877, 282.684 661.790, 283.408 666.500 C 283.662 668.150, 284.160 672.200, 284.514 675.500 C 284.868 678.800, 285.333 682.625, 285.546 684 C 290.379 715.107, 292.695 726.730, 294.790 730.400 C 295.072 730.895, 295.432 732.695, 295.589 734.400 C 295.746 736.105, 296.765 739.525, 297.855 742 C 299.693 746.178, 299.742 747.074, 298.535 754.522 C 297.819 758.934, 296.545 764.573, 295.704 767.052 C 294.862 769.531, 293.864 773.346, 293.486 775.530 C 293.108 777.713, 291.986 781.975, 290.992 785 C 288.625 792.208, 286.617 801.511, 286.711 804.842 C 286.752 806.304, 287.295 810.650, 287.918 814.500 C 288.540 818.350, 289.720 827.800, 290.539 835.500 C 292.461 853.561, 292.691 855.089, 294.422 861.298 C 295.220 864.159, 296.625 870.100, 297.545 874.500 C 298.464 878.900, 300.068 885.162, 301.108 888.415 C 303.800 896.833, 303.684 898.262, 299.328 910.343 C 298.232 913.380, 298.210 914.097, 299.221 913.762 C 299.924 913.528, 301.625 910.449, 303 906.918 C 305.648 900.120, 305.397 900.276, 312.785 900.829 C 314.925 900.989, 314.839 901.202, 311.439 904.187 C 308.081 907.136, 303 916.430, 303 919.624 C 303 922.009, 301.113 921.120, 299.483 917.967 C 297.787 914.687, 295.855 914.728, 296.717 918.025 C 297.356 920.468, 302.059 924.370, 303.049 923.279 C 303.437 922.850, 304.660 919.932, 305.766 916.793 C 308.276 909.670, 311.397 905.781, 316.344 903.611 C 323.201 900.603, 326.215 903.184, 328.531 914.047 C 329.405 918.146, 330.184 922.400, 330.262 923.500 C 330.340 924.600, 330.874 925.820, 331.448 926.211 C 332.022 926.602, 332.844 932.002, 333.275 938.211 C 334.476 955.533, 334.704 957.712, 335.437 958.898 C 336.528 960.663, 338.185 960.168, 337.606 958.250 C 335.155 950.143, 334.021 904.693, 335.936 891.358 C 336.500 887.431, 337.226 879.106, 337.548 872.858 C 338.216 859.917, 340.421 836.248, 342.984 814.500 C 343.567 809.550, 344.244 801.295, 344.488 796.156 C 344.732 791.017, 345.161 785.167, 345.441 783.156 C 345.722 781.145, 346.207 771.175, 346.520 761 C 346.833 750.825, 347.270 741.150, 347.491 739.500 C 349.010 728.177, 350.147 713.487, 349.685 711.175 C 349.382 709.660, 349.525 705.289, 350.003 701.461 C 350.480 697.632, 351.145 690.675, 351.479 686 C 351.814 681.325, 352.489 674.575, 352.980 671 C 353.471 667.425, 353.900 660.675, 353.933 656 C 353.966 651.325, 354.444 645.928, 354.996 644.007 C 355.548 642.085, 356.004 635.560, 356.009 629.507 C 356.013 623.453, 356.434 613.550, 356.943 607.500 C 357.453 601.450, 358.146 591.775, 358.484 586 C 360.101 558.374, 362.310 542.479, 364.658 541.578 C 365.460 541.270, 367.829 541.892, 369.923 542.961 C 372.814 544.436, 373.890 545.697, 374.391 548.202 C 375.239 552.433, 376.831 581.366, 376.968 595 C 377.025 600.775, 377.245 607.075, 377.456 609 C 377.831 612.418, 378.984 628.013, 379.525 637 C 379.674 639.475, 380.512 650.275, 381.387 661 C 382.261 671.725, 383.232 684.089, 383.543 688.475 C 383.854 692.861, 384.427 696.686, 384.816 696.975 C 385.204 697.264, 385.649 699.750, 385.803 702.500 C 385.958 705.250, 386.489 708.850, 386.984 710.500 C 388.663 716.101, 389.706 725.064, 388.747 725.656 C 388.238 725.971, 388.097 727.865, 388.434 729.865 C 390.810 743.934, 392.431 751, 393.283 751 C 394.167 751, 393.929 747.668, 392.460 739.500 C 391.411 733.668, 390.951 729.793, 390.504 723 C 390.232 718.875, 389.798 713.700, 389.540 711.500 C 389.173 708.377, 389.260 708.048, 389.936 710 C 390.411 711.375, 390.845 713.732, 390.900 715.238 C 390.955 716.744, 392.353 722.144, 394.007 727.238 C 397.216 737.122, 402.707 745.849, 406.310 746.791 C 408.158 747.275, 407.993 747.492, 405.025 748.492 C 403.153 749.122, 401.420 750.241, 401.174 750.978 C 400.852 751.945, 401.252 752.102, 402.614 751.540 C 406.375 749.988, 417.582 748.223, 421 748.646 C 423.802 748.992, 424.194 748.849, 422.965 747.930 C 421.653 746.948, 422.240 745.940, 427.005 740.994 C 431.368 736.466, 439.032 724.164, 439.463 721 C 439.500 720.725, 439.888 719.938, 440.324 719.250 C 440.761 718.562, 440.859 717.581, 440.543 717.069 C 440.226 716.557, 440.367 715.891, 440.855 715.590 C 441.661 715.091, 442.642 711.792, 443.559 706.500 C 444.649 700.205, 445.329 698, 446.181 698 C 446.706 698, 446.912 698.788, 446.639 699.750 C 446.367 700.712, 445.857 704.425, 445.507 708 C 444.622 717.038, 443.095 726.124, 442.064 728.500 C 440.767 731.485, 437.223 741.193, 436.534 743.646 C 434.520 750.818, 434.953 753.309, 442.506 778 C 445.158 786.667, 447.460 795.869, 447.488 797.918 C 447.499 798.698, 448.004 799.501, 448.610 799.703 C 449.383 799.961, 449.474 798.641, 448.915 795.285 C 447.271 785.431, 443.819 771.392, 442.082 767.500 C 441.591 766.400, 440.202 762.276, 438.996 758.335 C 436.612 750.542, 436.808 747.583, 440.190 740.345 C 442.213 736.014, 444.916 727.302, 445.571 723 C 446.656 715.878, 449.956 688.592, 450.470 682.500 C 450.794 678.650, 451.474 672.575, 451.980 669 C 452.487 665.425, 453.146 658.523, 453.446 653.662 C 453.745 648.801, 454.214 644.462, 454.488 644.020 C 455.687 642.079, 456.162 591.902, 455.083 581 C 453.848 568.505, 450.287 547.335, 449.048 545.122 C 447.753 542.808, 446.886 545.571, 447.993 548.482 C 448.950 550.999, 450.791 562.505, 452.875 579 C 454.652 593.060, 452.920 646.160, 449.907 670 C 447.714 687.352, 446.132 696.262, 445.112 697 C 444.733 697.275, 442.944 702.450, 441.138 708.500 C 435.358 727.862, 426.744 742.246, 419.214 745.109 C 415.931 746.357, 409.907 746.157, 407.334 744.715 C 399.831 740.507, 392.140 720.046, 388.851 695.545 C 388.157 690.370, 387.268 686.334, 386.876 686.577 C 386.484 686.819, 385.900 685.776, 385.579 684.259 C 384.868 680.902, 383.029 657.205, 382.416 643.500 C 382.170 638, 381.534 629.981, 381.003 625.679 C 380.473 621.378, 379.551 605.403, 378.956 590.179 C 378.361 574.956, 377.495 558.675, 377.031 554 C 376.567 549.325, 376.275 545.407, 376.383 545.294 C 376.490 545.181, 378.586 545.780, 381.039 546.626 C 387.611 548.890, 402.915 548.827, 415.074 546.486 C 416.026 546.303, 418.311 545.350, 420.152 544.368 C 421.993 543.387, 423.800 542.565, 424.167 542.542 C 424.533 542.519, 425.171 542.163, 425.583 541.750 C 425.996 541.337, 427.088 541, 428.010 541 C 431.911 541, 443.208 523.755, 444.465 515.882 C 444.970 512.716, 444.909 512.624, 443.502 514.441 C 442.676 515.509, 441.994 517.084, 441.987 517.941 C 441.974 519.671, 437.125 528.246, 432.500 534.720 C 429.938 538.307, 428.395 539.294, 421.924 541.484 C 403.382 547.760, 386.247 547.626, 371.470 541.090 C 368.930 539.966, 367.122 538.611, 367.451 538.079 C 367.781 537.546, 368.056 523.711, 368.063 507.334 L 368.075 477.558 371.548 471.347 C 375.609 464.085, 382.811 457.589, 391.797 453.082 C 399.938 448.999, 408.647 448.603, 417.250 451.924 C 420.413 453.145, 423 454.507, 423 454.951 C 423 455.394, 424.363 456.322, 426.028 457.012 C 430.189 458.735, 439.404 467.537, 438.529 468.953 C 438.143 469.577, 438.234 470.630, 438.731 471.294 C 442.353 476.131, 447.321 505.818, 447.634 524.500 C 447.899 540.297, 447.987 541.164, 449 538 C 450.141 534.436, 450.135 518.146, 448.987 507 C 447.970 497.120, 447.324 493.838, 443.276 478 C 441.869 472.495, 440.681 464.505, 440.452 459 C 440.234 453.775, 439.548 447.025, 438.927 444 C 437.437 436.731, 434.044 427.181, 432.805 426.768 C 432.196 426.565, 432.411 424.340, 433.367 420.969 C 436.466 410.038, 441.664 381.276, 442.651 369.603 C 443.006 365.401, 443.464 362.130, 443.668 362.334 C 443.872 362.538, 444.267 365.134, 444.547 368.103 C 444.826 371.071, 445.474 376.425, 445.987 380 C 446.500 383.575, 447.200 388.975, 447.543 392 C 448.259 398.319, 449.936 404.952, 451.261 406.706 C 451.762 407.370, 451.891 408.367, 451.548 408.922 C 450.369 410.830, 456.706 429.148, 459.194 431.025 C 459.577 431.314, 459.966 437.019, 460.058 443.702 C 460.157 450.889, 460.814 457.824, 461.667 460.677 C 462.459 463.329, 464.228 469.325, 465.598 474 C 466.967 478.675, 471.005 491.318, 474.571 502.095 C 478.138 512.873, 481.227 522.548, 481.438 523.595 C 481.648 524.643, 482.761 527.675, 483.910 530.333 C 485.060 532.991, 486 535.748, 486 536.460 C 486 537.173, 486.675 538.315, 487.500 539 C 488.325 539.685, 489 539.896, 489 539.470 C 489 538.710, 482.446 518.373, 479.019 508.500 C 478.065 505.750, 476.505 500.800, 475.552 497.500 C 474.600 494.200, 473.241 490.150, 472.532 488.500 C 470.907 484.717, 466.345 469.680, 464.036 460.500 C 462.361 453.842, 461.538 439.527, 462.871 440.260 C 471.809 445.174, 478.680 445.098, 487.217 439.992 C 490.325 438.133, 493.274 435.701, 493.770 434.589 C 494.516 432.917, 495.065 433.865, 496.927 440.033 C 498.919 446.636, 500.821 451.005, 505.619 460 C 507.470 463.468, 511.920 468.719, 511.964 467.484 C 511.984 466.925, 510.200 463.388, 508 459.623 C 505.800 455.858, 503.998 452.266, 503.996 451.639 C 503.994 451.013, 503.200 449.150, 502.231 447.500 C 500.286 444.187, 498.515 439.225, 497.503 434.250 C 497.139 432.463, 496.380 431, 495.817 431 C 495.254 431, 492.542 433.025, 489.789 435.500 C 487.036 437.975, 484.367 440, 483.857 440 C 483.312 440, 483.181 436.392, 483.538 431.250 C 484.606 415.864, 484.695 408.929, 483.829 408.394 C 482.399 407.510, 482.078 409.979, 481.614 425.458 C 481.213 438.789, 480.965 440.495, 479.332 441.138 C 476.031 442.438, 469.963 442.033, 466.700 440.294 C 464.940 439.356, 463.163 438.681, 462.750 438.794 C 462.337 438.907, 462 437.382, 462 435.404 C 462 433.427, 461.344 430.614, 460.541 429.154 C 454.374 417.933, 448.733 392.519, 447.521 370.500 C 447.340 367.200, 446.898 360.113, 446.539 354.750 C 446.121 348.496, 446.244 345, 446.884 345 C 447.433 345, 448.165 345.459, 448.512 346.019 C 449.566 347.725, 459.050 352.140, 460.831 351.753 C 461.864 351.529, 460.348 350.355, 456.857 348.673 C 453.753 347.179, 450.019 345.016, 448.560 343.868 L 445.906 341.781 446.555 330.641 C 446.975 323.412, 447.824 318.095, 448.971 315.500 C 451.218 310.415, 452.671 306.260, 453.459 302.666 C 454.331 298.690, 452.428 300.172, 450.963 304.611 C 447.686 314.543, 447.324 313.836, 446.676 296.245 C 446.337 287.035, 445.854 278.375, 445.603 277 C 444.490 270.911, 443.828 268.447, 443.109 267.719 C 442.295 266.895, 442.328 267.381, 444.012 281.252 C 445.223 291.221, 445.432 308.181, 444.411 313.623 C 444.015 315.732, 444.106 317.052, 444.625 316.732 C 445.682 316.079, 445.562 321.676, 444.446 325.119 C 444.022 326.429, 443.724 330.200, 443.786 333.500 C 443.847 336.800, 443.266 344, 442.496 349.500 C 441.725 355, 440.400 366.273, 439.551 374.552 C 438.702 382.831, 437.065 393.856, 435.913 399.052 C 434.760 404.248, 433.671 409.400, 433.492 410.500 C 433.313 411.600, 432.639 415.650, 431.994 419.500 C 430.911 425.962, 430.989 426.884, 433.003 431.500 C 435.390 436.968, 437.954 451.489, 437.982 459.702 L 438 464.905 433.164 460.069 C 430.285 457.189, 425.312 453.782, 420.871 451.646 C 414.403 448.535, 412.358 448.039, 405.457 447.907 C 399.345 447.790, 396.406 448.235, 392.784 449.827 C 384.489 453.473, 374.429 462.508, 369.312 470.908 L 367.124 474.500 367.312 470.851 C 367.415 468.844, 367.725 467.339, 368 467.506 C 368.275 467.674, 368.405 460.366, 368.288 451.268 C 368.145 440.015, 368.456 434.049, 369.261 432.612 C 370.149 431.028, 370.483 404.674, 370.598 327.208 C 370.682 270.398, 371.037 223.630, 371.387 223.280 C 371.737 222.930, 374.155 222.727, 376.762 222.829 C 382.265 223.043, 385.955 221.469, 381.948 220.616 C 380.602 220.330, 377.720 220.187, 375.543 220.298 L 371.587 220.500 371.829 200.037 C 372.004 185.309, 372.412 179.357, 373.286 178.800 C 373.954 178.374, 378.775 177.999, 384 177.965 C 389.225 177.931, 394.279 177.896, 395.230 177.888 C 396.182 177.880, 397.241 177.419, 397.584 176.865 C 397.994 176.201, 393.815 175.966, 385.353 176.178 L 372.500 176.500 372.853 151 C 373.087 134.136, 372.871 125.839, 372.215 126.500 C 371.654 127.066, 370.940 137.899, 370.571 151.457 C 370.212 164.634, 369.734 175.599, 369.508 175.825 C 368.888 176.445, 343.980 176.313, 343.353 175.686 C 342.272 174.606, 342.869 150.925, 344.070 147.247 C 345.386 143.214, 352.354 132.880, 356.166 129.308 C 357.453 128.102, 361.092 125.932, 364.253 124.484 C 367.414 123.037, 370 121.661, 370 121.427 C 370 120.546, 365.386 121.213, 362.390 122.527 M 346.599 241.165 C 342.092 243.782, 324.892 249.876, 317.978 251.306 C 308.719 253.221, 292.340 258.380, 285.100 261.662 C 274.848 266.310, 262.233 276.586, 257.783 283.913 C 256.586 285.886, 255.339 287.725, 255.013 288 C 252.537 290.088, 249.645 314.045, 251.715 315.324 C 252.326 315.701, 252.747 313.516, 252.814 309.625 C 252.873 306.154, 253.397 301.189, 253.980 298.591 C 255.461 291.983, 260.401 282.599, 264.253 279.078 C 266.039 277.446, 269.075 274.690, 271 272.956 C 274.773 269.556, 290.376 261.836, 298.500 259.351 C 301.250 258.509, 304.400 257.424, 305.500 256.938 C 306.600 256.453, 310.521 255.379, 314.214 254.551 C 326.774 251.735, 350 242.837, 350 240.842 C 350 239.721, 348.907 239.824, 346.599 241.165 M 392 241.812 C 392 243.514, 401.265 248.722, 407.390 250.463 C 410.629 251.384, 414.322 252.820, 415.596 253.655 C 416.870 254.489, 418.279 254.946, 418.727 254.669 C 419.969 253.901, 436.513 257.517, 445.507 260.521 C 454.475 263.517, 463.283 268.475, 467.121 272.689 C 468.530 274.235, 470.794 276.400, 472.154 277.500 C 480.142 283.964, 483.570 292.463, 484.458 308 C 485.365 323.872, 482.165 334.287, 472.955 345.431 C 468.629 350.667, 468.356 351.184, 470.320 350.431 C 472.551 349.575, 479.057 341.169, 481.992 335.351 C 483.523 332.314, 485.020 330.223, 485.316 330.703 C 487.292 333.900, 490.327 345.797, 492.662 359.500 C 495.438 375.787, 496.131 394.296, 494.745 415.146 C 494.195 423.427, 494.697 428, 496.157 428 C 496.665 428, 497.058 426.313, 497.029 424.250 C 497 422.188, 497.188 410.371, 497.447 397.992 C 497.809 380.640, 497.570 373.538, 496.406 366.992 C 495.576 362.321, 494.507 356.250, 494.031 353.500 C 492.778 346.260, 490.085 336.372, 488.073 331.621 C 486.664 328.293, 486.381 325.094, 486.601 315 C 487.007 296.462, 484.962 289.471, 475.667 277.617 C 471.597 272.428, 459.414 263.528, 452.824 260.931 C 449.899 259.778, 446.992 258.409, 446.366 257.888 C 445.233 256.949, 436.237 254.770, 426.315 253.034 C 415.510 251.142, 407.267 248.618, 400.500 245.127 C 391.485 240.477, 392 240.678, 392 241.812 M 405.410 257.011 C 402.159 258.667, 398.583 260.805, 397.462 261.761 C 394.180 264.561, 388.119 274.324, 386.379 279.614 C 384.126 286.464, 383.719 309.829, 385.658 321 C 387.134 329.499, 393.293 346.521, 396.071 349.775 C 396.881 350.724, 398.326 353.525, 399.284 356 C 404.313 369.005, 418.088 382.572, 427.751 384.038 C 433.899 384.971, 434.023 383.385, 427.904 382.073 C 423.438 381.115, 414.016 375.702, 413.991 374.080 C 413.987 373.761, 412.299 371.725, 410.241 369.556 C 405.875 364.952, 405.588 364.489, 399.399 352 C 394.097 341.303, 391.588 335.018, 389.419 327 C 387.541 320.060, 384.960 301.040, 385.467 297.883 C 385.677 296.572, 386.099 293.700, 386.404 291.500 C 387.296 285.063, 389.584 277.549, 392.416 271.760 C 395.306 265.855, 401.297 260.703, 409 257.502 C 414.570 255.187, 416.048 254, 413.360 254 C 412.238 254, 408.660 255.355, 405.410 257.011 M 318.311 255.937 C 309.667 256.948, 311.389 257.692, 322.239 257.632 C 333.781 257.568, 336.032 258.350, 342.549 264.684 C 349.660 271.596, 352.670 285.957, 349.974 300.114 C 349.410 303.076, 348.712 306.832, 348.423 308.459 C 348.134 310.087, 347.493 311.906, 346.999 312.502 C 346.504 313.098, 345.427 316.491, 344.605 320.043 C 340.804 336.475, 331.566 361.253, 327.335 366.365 C 323.279 371.264, 313.364 380.012, 310.781 380.969 C 309.252 381.536, 306.650 382.505, 305 383.121 C 300.990 384.620, 301.166 385.979, 305.250 385.050 C 311.212 383.694, 317.442 379.774, 323.500 373.567 C 328.351 368.597, 330.440 365.321, 334.409 356.460 C 341.956 339.609, 342.519 338.079, 345.797 325.500 C 346.370 323.300, 347.603 318.575, 348.536 315 C 355.438 288.561, 354.348 274.125, 344.704 264.228 C 337.354 256.686, 330.447 254.516, 318.311 255.937 M 293 269 C 293 269.550, 293.477 270, 294.059 270 C 294.641 270, 294.840 269.550, 294.500 269 C 294.160 268.450, 293.684 268, 293.441 268 C 293.198 268, 293 268.450, 293 269 M 292.817 271.540 C 292.283 272.453, 290.577 299.883, 290.627 306.750 C 290.640 308.538, 290.507 310, 290.333 310 C 290.158 310, 289.225 308.345, 288.258 306.322 C 284.930 299.360, 283.968 301.716, 287.117 309.115 C 293.309 323.667, 293.597 347.065, 288.025 383 C 286.788 390.975, 284.684 401.325, 283.348 406 C 280.204 417.009, 280.483 415.977, 279.566 420 C 279.128 421.925, 278.436 423.950, 278.029 424.500 C 277.154 425.682, 276.014 430, 276.577 430 C 278.453 430, 286.619 406.446, 287.671 398 C 287.911 396.075, 288.502 393.375, 288.985 392 C 289.468 390.625, 290.397 384.866, 291.050 379.202 C 292.262 368.689, 292.706 367.429, 293.384 372.583 C 293.595 374.188, 294.715 380.225, 295.872 386 C 297.029 391.775, 298.171 398.175, 298.409 400.222 C 298.828 403.825, 302.319 416.427, 304.026 420.500 C 305.742 424.594, 305.008 419.097, 302 405.336 C 298.910 391.200, 298.225 384.403, 300 385.500 C 300.550 385.840, 301 385.694, 301 385.176 C 301 384.657, 300.161 384.014, 299.136 383.746 C 296.431 383.039, 295.519 375.345, 294.543 345 C 294.340 338.675, 293.627 329.450, 292.959 324.500 C 292.205 318.911, 292.019 312.279, 292.468 307 C 292.866 302.325, 293.370 294.450, 293.588 289.500 C 293.805 284.550, 294.197 279.579, 294.459 278.454 C 295.024 276.029, 293.628 270.152, 292.817 271.540 M 251.251 321.500 C 251.322 324.405, 250.427 329.223, 249.115 333 C 239.694 360.120, 238.672 365.895, 239.331 388.263 C 239.626 398.293, 240.093 407.896, 240.368 409.602 C 240.643 411.308, 240.552 415.133, 240.167 418.102 C 239.782 421.071, 239.719 425.075, 240.028 427 C 240.682 431.082, 239.754 434.709, 236.411 441.135 C 235.085 443.685, 234 446.315, 234 446.981 C 234 447.647, 232.988 449.609, 231.750 451.341 C 226.271 459.012, 222.628 468.820, 221.568 478.752 C 220.652 487.329, 220.762 523.472, 221.720 529 C 222.149 531.475, 222.358 535.525, 222.185 538 C 221.881 542.329, 221.649 542.627, 216.062 545.844 C 212.868 547.684, 207.555 551.959, 204.255 555.344 C 198.572 561.173, 189 574.208, 189 576.116 C 189 578.086, 190.647 576.765, 193.202 572.748 C 198.673 564.146, 212.180 549.040, 212.783 550.850 C 212.965 551.395, 211.738 554.783, 210.057 558.379 C 208.376 561.974, 207 565.460, 207 566.125 C 207 566.790, 205.924 568.496, 204.609 569.917 C 203.294 571.338, 200.187 574.737, 197.704 577.470 C 193.365 582.248, 193.090 582.386, 190.597 581.052 C 187.470 579.378, 186.282 580.139, 188.524 582.381 C 191.391 585.248, 194.437 584.310, 199.363 579.043 C 201.913 576.316, 204 573.579, 204 572.960 C 204 572.340, 204.563 572.023, 205.250 572.254 C 205.938 572.486, 207.045 571.961, 207.711 571.088 C 208.376 570.214, 207.791 572.650, 206.410 576.500 C 202.487 587.434, 197.837 602.156, 196.619 607.500 C 196.493 608.050, 195.808 610.218, 195.096 612.317 C 193.931 615.751, 193.986 616.274, 195.650 617.535 C 196.668 618.306, 198.197 618.951, 199.050 618.968 C 200.126 618.990, 200.600 619.996, 200.600 622.258 C 200.600 627.816, 201.524 629, 205.862 629 C 208.211 629, 209.992 628.464, 210.298 627.666 C 210.585 626.918, 212.475 626.269, 214.596 626.189 C 218.454 626.044, 220.617 624.674, 221.184 622.017 C 221.358 621.201, 223.296 620.076, 225.491 619.517 C 229.870 618.401, 232.248 614.946, 236.171 604 C 237.255 600.975, 238.559 597.600, 239.068 596.500 C 240.167 594.128, 245 578.860, 245 577.762 C 245 575.515, 242.998 577.511, 242.004 580.750 C 239.115 590.161, 239.625 589.713, 232.195 589.360 C 220.165 588.789, 204.883 584.121, 206.853 581.620 C 207.338 581.004, 208.531 578.062, 209.504 575.083 C 210.814 571.069, 210.995 569.222, 210.204 567.955 C 209.378 566.632, 209.956 564.220, 212.764 557.282 C 215.942 549.431, 216.894 548.025, 220.446 545.944 C 222.676 544.638, 224.725 543.645, 225 543.737 C 225.275 543.829, 227.975 544.780, 231 545.851 C 235.229 547.348, 237.625 547.623, 241.368 547.040 L 246.236 546.281 245.510 555.391 C 244.152 572.451, 244.116 573.954, 245.058 574.536 C 245.576 574.856, 246.003 574.979, 246.008 574.809 C 246.012 574.639, 246.466 570.675, 247.018 566 C 247.569 561.325, 248.269 554.575, 248.573 551 C 249.063 545.252, 251.407 535.994, 254.092 529.203 C 254.591 527.940, 255 525.812, 255 524.474 C 255 523.136, 255.925 518.995, 257.055 515.271 C 262.485 497.383, 265.376 488.343, 266.197 486.686 C 267.012 485.043, 272.400 470.007, 273.699 465.750 C 273.993 464.788, 273.768 464, 273.199 464 C 272.631 464, 271.416 466.137, 270.500 468.750 C 269.585 471.363, 267.088 478, 264.952 483.500 C 262.816 489, 260.396 495.750, 259.573 498.500 C 256.419 509.049, 252.872 521.979, 252.392 524.681 C 252.116 526.231, 250.793 531.113, 249.452 535.528 C 247.312 542.576, 246.647 543.695, 244.005 544.692 C 240.175 546.138, 233.870 545.421, 228.608 542.941 L 224.500 541.006 224.002 531.253 C 223.727 525.889, 223.556 511.107, 223.620 498.405 C 223.756 471.453, 223.777 471.356, 234.032 451.500 C 237.725 444.350, 241.097 436.925, 241.526 435 C 241.955 433.075, 242.207 423.625, 242.086 414 C 241.614 376.334, 241.745 368.216, 242.913 362.956 C 245.710 350.360, 252.333 328.088, 253.134 328.583 C 253.610 328.877, 254.010 329.879, 254.022 330.809 C 254.034 331.739, 254.924 333.625, 256 335 C 257.076 336.375, 257.966 338.106, 257.978 338.846 C 258.008 340.664, 261.708 346.018, 264.729 348.613 C 267.086 350.637, 267.404 350.662, 272.337 349.216 C 277.614 347.670, 284.588 343.672, 286.668 341.002 C 288.527 338.616, 287.224 338.459, 284.189 340.702 C 280.572 343.376, 272.225 347.540, 268.859 348.349 C 266.714 348.864, 265.880 348.469, 264.414 346.242 C 260.738 340.656, 255.196 328.371, 254.536 324.342 C 254.162 322.055, 253.242 319.355, 252.492 318.342 C 251.281 316.706, 251.143 317.058, 251.251 321.500 M 466.521 398.545 C 464.553 400.456, 462.507 403.166, 461.975 404.566 C 459.327 411.529, 461.902 428.942, 466.673 436.342 C 468.035 438.455, 469.349 439.984, 469.593 439.740 C 469.837 439.496, 468.653 435.968, 466.962 431.898 C 462.679 421.593, 461.868 410.969, 464.889 404.729 C 467.721 398.879, 470.289 396.605, 473.231 397.343 C 475.963 398.029, 482.206 403.858, 481.475 405.041 C 481.196 405.492, 481.425 406.144, 481.984 406.490 C 483.114 407.189, 483.231 404.412, 482.180 401.833 C 481.160 399.331, 476.907 396.389, 473.300 395.690 C 470.574 395.162, 469.570 395.585, 466.521 398.545 M 259.500 401.297 C 255.123 403.774, 251.028 410.505, 251.010 415.250 C 251.004 416.913, 250.506 417.901, 249.750 417.750 C 249.063 417.613, 248.620 418.086, 248.767 418.802 C 248.914 419.518, 249.487 423.568, 250.040 427.802 C 250.593 432.036, 251.269 436.512, 251.542 437.750 C 252.160 440.554, 250.672 440.637, 245.654 438.079 C 243.434 436.947, 242.033 436.639, 242.243 437.329 C 242.440 437.973, 244.828 439.567, 247.550 440.871 C 250.273 442.175, 252.612 443.525, 252.749 443.871 C 252.886 444.217, 255.306 444.340, 258.125 444.145 C 261.607 443.904, 263.513 444.212, 264.065 445.105 C 264.723 446.170, 265.223 446.124, 266.689 444.862 C 267.685 444.005, 269.400 442.941, 270.500 442.497 C 272.277 441.780, 272.307 441.644, 270.766 441.275 C 269.173 440.893, 269.153 440.570, 270.516 437.308 C 271.332 435.354, 272 433.109, 272 432.319 C 272 429.741, 270.053 432.007, 267.833 437.167 L 265.659 442.219 260.331 441.778 C 257.400 441.534, 254.664 440.998, 254.251 440.585 C 252.948 439.282, 252.712 415.403, 253.965 411.607 C 255.595 406.666, 261.188 402, 265.478 402 C 271.832 402, 272.577 405.413, 270.608 425.500 L 270.117 430.500 271.626 426 C 273.162 421.420, 273.714 407.824, 272.517 404.054 C 271.860 401.984, 267.266 398.985, 264.800 399.016 C 264.085 399.025, 261.700 400.052, 259.500 401.297 M 429.500 430 C 429.840 430.550, 430.316 431, 430.559 431 C 430.802 431, 431 430.550, 431 430 C 431 429.450, 430.523 429, 429.941 429 C 429.359 429, 429.160 429.450, 429.500 430 M 274.923 432.250 C 274.756 434.962, 274.197 439.874, 273.131 448 C 271.790 458.216, 271.728 461, 272.840 461 C 273.718 461, 277.003 439.882, 277.001 434.250 C 277 431.253, 275.097 429.422, 274.923 432.250 M 320.036 451.663 C 310.633 454.212, 298.705 464.720, 297.735 471.310 C 297.477 473.065, 296.265 478.100, 295.041 482.500 C 293.818 486.900, 292.422 493.200, 291.939 496.500 C 291.455 499.800, 290.692 504.525, 290.242 507 C 288.760 515.150, 292.329 527.879, 299.205 538.973 C 301.659 542.931, 307.409 546.002, 314.080 546.917 C 317.611 547.402, 321.625 548.095, 323 548.457 C 326.005 549.250, 336.785 549.207, 342.958 548.378 C 350.499 547.365, 355.724 545.373, 361.003 541.498 L 366.065 537.782 365.798 514.305 C 365.651 501.393, 365.247 490.653, 364.900 490.438 C 364.553 490.224, 364.401 488.855, 364.561 487.396 C 364.721 485.937, 363.538 481.330, 361.931 477.159 C 357.364 465.298, 345.644 454.445, 334.178 451.458 C 327.566 449.736, 327.121 449.742, 320.036 451.663 M 512.527 471.957 C 511.824 473.094, 511.749 506.785, 512.446 507.913 C 512.666 508.268, 512.980 513.856, 513.146 520.332 C 513.312 526.807, 513.826 532.644, 514.290 533.303 C 514.753 533.961, 514.855 520.341, 514.517 503.035 C 514.179 485.729, 513.745 471.411, 513.551 471.218 C 513.358 471.025, 512.897 471.357, 512.527 471.957 M 217.015 540.750 C 217.007 541.987, 217.450 543, 218 543 C 219.253 543, 219.253 541.939, 218 540 C 217.216 538.787, 217.028 538.931, 217.015 540.750 M 511.755 541.077 C 510.795 541.636, 506.295 543.020, 501.755 544.152 C 492.033 546.576, 489.039 548.488, 496.500 547.508 C 501.736 546.820, 510.675 544.186, 512.662 542.745 C 513.397 542.211, 516.407 543.787, 520.869 547.043 C 530.672 554.195, 534.846 558.340, 537.884 563.939 C 541.878 571.297, 545.905 577, 547.108 577 C 548.147 577, 545.419 571.776, 540.382 564.120 C 534.801 555.639, 529.250 549.861, 522.581 545.595 C 519.633 543.709, 516.919 541.679, 516.551 541.083 C 515.725 539.746, 514.045 539.744, 511.755 541.077 M 489.703 544.694 C 487.974 547.440, 491.772 580.491, 494.793 589 C 495.868 592.025, 498.154 597.256, 499.873 600.624 C 501.593 603.992, 503 607.278, 503 607.926 C 503 609.416, 507.167 617.242, 508.500 618.254 C 509.050 618.672, 510.451 618.903, 511.614 618.769 C 513.675 618.530, 519 623.583, 519 625.778 C 519 627.219, 522.447 627.889, 524.358 626.820 C 525.384 626.245, 526 626.265, 526 626.871 C 526 627.404, 527.380 628.144, 529.067 628.515 C 532.621 629.295, 536 626.948, 536 623.699 C 536 621.889, 535.777 621.949, 533.548 624.354 C 532.199 625.809, 530.713 627, 530.246 627 C 529.455 627, 527.320 622.735, 522.797 612.118 C 521.770 609.708, 521.058 607.623, 521.215 607.485 C 521.372 607.347, 522.850 606.946, 524.500 606.594 C 527.199 606.018, 527.630 606.283, 528.791 609.227 C 532.030 617.437, 533.480 619.498, 536.242 619.816 C 540.895 620.351, 541.700 616.813, 539.565 605.214 C 538.582 599.872, 536.973 593.634, 535.991 591.354 C 535.008 589.074, 533.886 585.756, 533.496 583.981 C 532.747 580.572, 529.039 573.627, 528.341 574.326 C 528.115 574.552, 528.791 577.159, 529.844 580.118 C 530.898 583.078, 532.519 588.200, 533.447 591.500 C 534.376 594.800, 535.494 598.400, 535.932 599.500 C 536.371 600.600, 537.319 604.800, 538.040 608.833 C 539.160 615.101, 539.143 616.297, 537.925 617.068 C 537.141 617.564, 536.048 617.976, 535.495 617.985 C 533.946 618.008, 529.440 605.687, 530.828 605.224 C 531.458 605.014, 532.992 603.954, 534.237 602.868 L 536.500 600.894 534 601.597 C 529.458 602.874, 528.829 602.541, 526.976 597.886 L 525.140 593.272 528.070 591.106 C 531.603 588.494, 532.021 586.285, 528.552 588.558 C 527.206 589.440, 525.518 590.281, 524.802 590.427 C 524.086 590.573, 522.233 591.212, 520.685 591.846 C 519.137 592.481, 515.638 593, 512.910 593 C 508.509 593, 507.841 592.712, 506.977 590.440 C 505.862 587.506, 503.921 587.984, 504.710 590.998 C 505.163 592.732, 504.795 592.959, 501.905 592.725 C 498.904 592.481, 498.401 591.969, 496.764 587.477 C 494.895 582.353, 493.544 573.926, 492.464 560.672 C 491.514 549.004, 490.539 543.366, 489.703 544.694 M 525.022 557 C 525 558.375, 524.712 561.754, 524.381 564.509 C 523.781 569.497, 523.793 569.523, 527.210 570.759 C 529.098 571.442, 531.343 572, 532.200 572 C 533.056 572, 534.283 573.237, 534.926 574.750 C 536.101 577.517, 543.732 584, 545.813 584 C 547.268 584, 549.269 580.244, 548.487 578.979 C 547.453 577.306, 546 577.902, 546 580 C 546 583.222, 544.457 582.368, 539.054 576.155 C 535.624 572.212, 532.694 569.889, 530.049 569.016 L 526.127 567.722 526.687 562.993 C 527.005 560.307, 526.775 557.451, 526.154 556.382 C 525.151 554.655, 525.058 554.706, 525.022 557 M 204.684 589.250 C 201.669 597.324, 201.602 598.661, 204.176 599.350 C 208.928 600.623, 209.797 600.163, 210.499 596.005 C 210.870 593.808, 211.585 591.757, 212.087 591.446 C 213.296 590.699, 213.255 595.198, 212.025 598.435 C 211.115 600.829, 211.246 601, 213.997 601 C 216.593 601, 217.209 600.384, 219.167 595.834 C 221.756 589.814, 222.874 590.987, 220.681 597.423 C 219.229 601.685, 219.249 601.832, 221.342 602.394 C 225.864 603.607, 226.737 603.104, 227.863 598.629 C 228.469 596.225, 229.245 593.525, 229.589 592.629 C 230.090 591.324, 229.547 590.999, 226.857 590.994 C 222.669 590.987, 216.783 589.455, 211.261 586.935 C 208.929 585.871, 206.853 585, 206.647 585 C 206.440 585, 205.557 586.913, 204.684 589.250 M 232.949 591.651 C 230.979 592.183, 228.478 603.059, 230.096 604.059 C 230.720 604.445, 230.296 604.951, 229.085 605.268 C 227.938 605.567, 227 606.519, 227 607.382 C 227 608.245, 226.102 610.425, 225.004 612.226 C 222.485 616.357, 222.459 617.954, 224.920 617.311 C 227.809 616.555, 231.515 611.898, 232.766 607.453 C 233.377 605.279, 234.805 600.843, 235.939 597.595 C 237.072 594.347, 238 591.534, 238 591.345 C 238 590.913, 235.010 591.094, 232.949 591.651 M 500.679 596.879 C 501.828 601.492, 504.594 605.490, 506.868 605.824 C 508.830 606.113, 508.998 605.835, 508.375 603.324 C 506.489 595.715, 506.394 595.560, 503.199 594.907 C 500.173 594.288, 500.057 594.379, 500.679 596.879 M 518.292 594.799 C 517.352 595.396, 517.377 596.561, 518.402 600.033 C 519.569 603.987, 520.052 604.500, 522.610 604.500 C 525.274 604.500, 525.479 604.238, 525.233 601.152 C 524.745 595.034, 521.949 592.474, 518.292 594.799 M 508.995 595.817 C 508.992 596.193, 509.756 598.638, 510.693 601.250 C 512.054 605.048, 512.856 606, 514.698 606 C 517.320 606, 517.559 604.597, 515.886 599.015 C 514.946 595.876, 514.324 595.285, 511.886 595.216 C 510.299 595.171, 508.998 595.441, 508.995 595.817 M 200.605 601.801 C 200.331 602.735, 199.807 605.192, 199.440 607.261 C 199.073 609.330, 198.374 611.269, 197.887 611.570 C 196.418 612.478, 196.889 615.743, 198.582 616.393 C 201.909 617.670, 202.844 616.778, 205.807 609.502 L 208.861 602.003 206.181 601.418 C 204.706 601.096, 202.961 600.669, 202.301 600.468 C 201.642 600.267, 200.878 600.867, 200.605 601.801 M 210.557 603.776 C 210.251 604.083, 210 604.914, 210 605.623 C 210 606.333, 208.204 610.645, 206.009 615.207 C 203.813 619.768, 202.013 624.054, 202.009 624.731 C 201.997 626.337, 206.854 627.546, 208.142 626.258 C 208.689 625.711, 210.038 621.744, 211.140 617.443 C 212.242 613.142, 213.786 608.380, 214.572 606.861 C 215.357 605.342, 216 603.964, 215.999 603.800 C 215.998 603.238, 211.117 603.217, 210.557 603.776 M 215.724 610.750 C 214.297 614.462, 212.887 618.962, 212.590 620.750 C 212.084 623.793, 212.234 624, 214.947 624 C 217.414 624, 218.024 623.443, 219.053 620.250 C 219.717 618.188, 220.581 616.050, 220.972 615.500 C 221.363 614.950, 222.454 612.517, 223.396 610.093 C 225.257 605.306, 224.638 604.046, 220.409 604.015 C 218.746 604.003, 217.787 605.381, 215.724 610.750 M 507.487 611.622 C 508.319 613.614, 509 615.414, 509 615.622 C 509 615.830, 510.089 616, 511.420 616 C 513.838 616, 513.838 615.997, 512.268 612 C 511.052 608.906, 510.162 608, 508.335 608 C 506.009 608, 505.996 608.055, 507.487 611.622 M 513.141 608.793 C 516.050 616.465, 520.791 624.937, 522.191 624.966 C 525.870 625.040, 525.352 621.974, 520.002 612 C 518.699 609.571, 517.307 608.400, 515.453 608.173 C 513.984 607.993, 512.944 608.272, 513.141 608.793 M 392.706 752.726 C 391.911 753.953, 391.690 788.414, 392.435 795 C 392.653 796.925, 393.146 803.225, 393.531 809 C 394.624 825.390, 394.737 826.669, 396.377 841 C 398.471 859.298, 399.254 867.981, 399.102 871.211 C 399.032 872.702, 399.454 876.065, 400.041 878.683 C 402.409 889.248, 403.074 917.246, 401.580 943.500 C 401.208 950.041, 401.341 952.951, 401.965 951.911 C 402.984 950.215, 403.712 943.934, 404.556 929.553 C 404.845 924.633, 405.494 920.110, 405.998 919.502 C 406.503 918.894, 407.445 915.194, 408.091 911.279 C 408.738 907.364, 410.230 902.437, 411.408 900.330 C 417.101 890.147, 427.526 899.127, 431.463 917.605 C 432.587 922.882, 434.138 926.349, 437.229 930.500 C 451.724 949.961, 457.961 958.727, 457.978 959.664 C 457.994 960.489, 453.928 960.860, 444 960.940 L 430 961.054 429.930 952.777 C 429.891 948.225, 429.473 943.600, 429 942.500 C 427.925 939.999, 427.843 940.521, 427.624 951.193 C 427.527 955.975, 427.163 960.170, 426.817 960.517 C 426.470 960.863, 420.202 961.110, 412.886 961.066 C 402.309 961.002, 399.839 961.239, 400.825 962.225 C 401.747 963.147, 407.748 963.419, 424.282 963.288 C 461.728 962.992, 460 963.167, 460 959.656 C 460 957.852, 455.885 951.266, 451.085 945.386 C 446.515 939.790, 442.008 933.269, 442.004 932.250 C 442.002 931.563, 441.663 930.997, 441.250 930.993 C 440.837 930.989, 439.436 929.424, 438.135 927.514 L 435.771 924.041 437.804 919.932 L 439.837 915.823 436.920 909.161 C 435.315 905.498, 433.611 901.813, 433.133 900.974 C 432.559 899.968, 433.531 895.531, 435.981 887.974 C 441.444 871.117, 445 857.824, 445 854.258 C 445 852.531, 445.386 850.879, 445.858 850.588 C 446.775 850.021, 448.243 841.377, 450.034 826 C 451.288 815.233, 450.998 801.825, 449.500 801.328 C 448.875 801.121, 448.604 803.907, 448.776 808.748 C 449.038 816.098, 448.044 826.406, 446.004 837.500 C 442.711 855.406, 440.726 864.418, 438.625 871 C 437.309 875.125, 435.446 881.200, 434.485 884.500 C 433.524 887.800, 432.113 892.455, 431.349 894.845 C 430.002 899.056, 430.071 899.451, 433.604 907.675 C 436.837 915.202, 437.108 916.462, 436.008 918.830 C 434.804 921.421, 434.700 921.276, 432.494 913.926 C 429.633 904.398, 426.773 898.753, 423.501 896.180 L 420.947 894.171 423.974 893.506 C 428.926 892.418, 427.565 890.744, 422.250 891.386 C 419.637 891.702, 414.822 892.210, 411.548 892.516 C 408.274 892.821, 405.358 893.309, 405.068 893.599 C 404.579 894.088, 401.328 868.219, 399.085 846 C 398.558 840.775, 397.815 834.250, 397.434 831.500 C 396.386 823.943, 398.423 827.030, 400.815 836.625 C 403.121 845.874, 407.038 852.839, 411.988 856.491 C 417.815 860.790, 426.369 859.631, 432.255 853.745 C 438.814 847.186, 444.638 830.793, 444.954 818 C 445.028 814.975, 445.222 810.025, 445.383 807 C 445.544 803.975, 445.303 800.600, 444.847 799.500 L 444.018 797.500 444.181 799.500 C 444.500 803.407, 442.830 821.617, 441.461 829.175 C 440.664 833.575, 438.492 840.086, 436.372 844.431 C 432.976 851.392, 432.234 852.227, 427.316 854.634 C 420.537 857.950, 416.092 857.439, 411.249 852.786 C 406.992 848.695, 405.807 846.448, 402.646 836.459 C 397.393 819.865, 395.018 802.360, 394.171 774 C 393.802 761.625, 393.143 752.052, 392.706 752.726 M 337.657 828.750 C 337.315 831.362, 336.820 834.991, 336.557 836.813 C 335.818 841.937, 329.526 854.132, 325.738 857.786 C 323.717 859.735, 320.876 861.308, 318.757 861.652 C 311.699 862.797, 302.110 855.540, 296.094 844.500 L 293.914 840.500 294.488 846.500 C 295.386 855.882, 295.753 857.990, 297.884 866 C 298.982 870.125, 301.272 878.878, 302.975 885.451 C 304.677 892.025, 306.287 897.621, 306.554 897.887 C 306.820 898.153, 312.317 898.289, 318.769 898.188 C 326.743 898.063, 330.020 898.319, 329 898.987 C 328.175 899.527, 326.375 899.979, 325 899.990 L 322.500 900.010 325.305 902.255 C 327.352 903.894, 328.618 906.389, 329.995 911.500 C 331.031 915.350, 331.946 917.825, 332.028 917 C 332.383 913.414, 332.863 905.702, 333.397 895 C 333.713 888.675, 334.237 879.852, 334.561 875.394 C 334.886 870.936, 335.300 865.086, 335.482 862.394 C 335.663 859.702, 335.907 857.275, 336.024 857 C 336.141 856.725, 336.215 856.258, 336.189 855.962 C 336.163 855.666, 336.578 852.291, 337.112 848.462 C 338.596 837.830, 339.610 824, 338.907 824 C 338.561 824, 337.999 826.138, 337.657 828.750 M 406.711 895.466 C 404.580 896.462, 404.520 896.881, 405.054 907 C 405.359 912.775, 405.697 915.669, 405.804 913.432 C 406.088 907.530, 408.667 899.611, 410.990 897.509 C 412.096 896.509, 413 895.338, 413 894.907 C 413 893.864, 409.465 894.178, 406.711 895.466 M 295.787 930.177 C 293.429 933.574, 289.335 939.527, 286.688 943.406 C 284.041 947.285, 281.516 950.693, 281.077 950.979 C 280.638 951.266, 279.429 953.021, 278.390 954.881 C 277.350 956.740, 275.964 959.191, 275.309 960.328 C 274.308 962.066, 274.434 962.616, 276.102 963.784 C 277.710 964.910, 282.277 965.067, 300.292 964.615 C 327.845 963.924, 325.850 964.052, 326.549 962.920 C 326.918 962.323, 317.959 962.102, 302.532 962.329 C 288.999 962.527, 277.753 962.410, 277.542 962.068 C 277.182 961.485, 287.623 945.090, 289.047 944 C 289.617 943.564, 293.471 937.931, 296.500 933.108 C 297.050 932.232, 298.512 930.240, 299.750 928.681 C 302.148 925.660, 302.605 924, 301.037 924 C 300.508 924, 298.145 926.780, 295.787 930.177 M 306.730 941.262 C 305.871 943.501, 306.818 956.218, 307.926 957.326 C 308.691 958.091, 309 955.754, 309 949.200 C 309 940.957, 308.080 937.742, 306.730 941.262 M 328.570 961.886 C 327.733 963.242, 331.911 963.984, 334.607 962.959 C 335.923 962.459, 337 961.813, 337 961.525 C 337 960.618, 329.146 960.955, 328.570 961.886" stroke="none" fill="black" fill-rule="evenodd"/></g></svg>