<?xml version="1.0" encoding="utf-8"?>
<svg id="master-artboard" viewBox="0 0 542.728271484375 956.4161376953125" version="1.1" xmlns="http://www.w3.org/2000/svg" x="0px" y="0px" style="enable-background:new 0 0 336 235.2;" width="542.728271484375px" height="956.4161376953125px"><rect id="ee-background" x="0" y="0" width="542.728271484375" height="956.4161376953125" style="fill: white; fill-opacity: 0; pointer-events: none;"/><g transform="matrix(0.9570313096046447, 0, 0, 0.9570313096046447, -75.67071846610156, -16.508670633987677)"><path d="M 81 516.500 L 81 1014 362 1014 L 643 1014 643 516.500 L 643 19 362 19 L 81 19 81 516.500 M 82 516.500 L 82 1012 362 1012 L 642 1012 642 516.500 L 642 21 362 21 L 82 21 82 516.500 M 391.500 63 C 391.139 63.583, 385.490 64, 377.941 64 C 369.980 64, 365 64.385, 365 65 C 365 65.566, 367.869 66, 371.607 66 C 377.221 66, 378.123 66.238, 377.607 67.582 C 377.273 68.452, 377 69.634, 377 70.209 C 377 70.861, 375.118 71.074, 372 70.774 L 367 70.294 367 81.088 C 367 91.070, 368.105 95.497, 369.614 91.563 C 370.102 90.291, 372.057 90, 380.107 90 C 386.036 90, 390 90.401, 390 91 C 390 91.550, 390.675 92, 391.500 92 C 392.718 92, 393.028 90.211, 393.150 82.500 C 393.233 77.275, 393.345 72.440, 393.400 71.755 C 393.474 70.838, 391.582 70.598, 386.230 70.846 L 378.960 71.181 380.141 68.591 C 381.239 66.180, 381.784 66, 387.994 66 C 395.177 66, 396.614 65.445, 394.869 63.342 C 393.545 61.747, 392.349 61.626, 391.500 63 M 353 64.126 C 353 64.921, 349.612 65.122, 341.478 64.811 C 333.591 64.509, 330.069 64.706, 330.312 65.435 C 330.530 66.086, 333.065 66.367, 336.834 66.158 L 343 65.816 343 76.908 L 343 88 339.894 88 L 336.788 88 337.151 80.014 C 337.398 74.582, 337.143 71.885, 336.355 71.583 C 334.355 70.815, 334 72.110, 334 80.167 L 334 88 330.941 88 C 329.156 88, 328.139 88.417, 328.500 89 C 329.269 90.244, 359 90.363, 359 89.122 C 359 88.640, 358.306 87.669, 357.458 86.965 C 356.289 85.995, 355.634 85.966, 354.758 86.842 C 354.121 87.479, 351.890 88, 349.800 88 L 346 88 346 82.500 L 346 77 351 77 C 353.768 77, 356 76.540, 356 75.969 C 356 74.512, 353.345 73.668, 351.798 74.632 C 351.084 75.077, 349.488 75.497, 348.250 75.566 C 346.209 75.680, 346 75.241, 346 70.846 L 346 66 352 66 C 357.742 66, 359.779 64.897, 356.418 63.607 C 354.066 62.704, 353 62.866, 353 64.126 M 370 80.500 C 370 87.874, 370.043 88, 372.553 88 C 375.080 88, 375.103 87.926, 374.907 80.500 C 374.717 73.347, 374.599 73, 372.354 73 C 370.091 73, 370 73.291, 370 80.500 M 377 74.500 C 377 75.500, 378 76, 380 76 C 382 76, 383 75.500, 383 74.500 C 383 73.500, 382 73, 380 73 C 378 73, 377 73.500, 377 74.500 M 386 80.500 C 386 87.333, 386.178 88, 388 88 C 389.822 88, 390 87.333, 390 80.500 C 390 73.667, 389.822 73, 388 73 C 386.178 73, 386 73.667, 386 80.500 M 377 80 C 377 81.556, 377.667 82, 380 82 C 382.333 82, 383 81.556, 383 80 C 383 78.444, 382.333 78, 380 78 C 377.667 78, 377 78.444, 377 80 M 377 86 C 377 87.556, 377.667 88, 380 88 C 382.333 88, 383 87.556, 383 86 C 383 84.444, 382.333 84, 380 84 C 377.667 84, 377 84.444, 377 86 M 366.558 126.906 C 366.250 127.404, 368.361 128.119, 371.249 128.495 C 374.137 128.870, 378.171 130.257, 380.212 131.578 C 384.269 134.201, 390.401 142.976, 391.402 147.590 C 391.750 149.191, 392.298 151.625, 392.621 153 C 393.289 155.841, 393.188 172.887, 392.497 174.005 C 391.486 175.641, 391.867 202.267, 392.916 203.316 C 393.695 204.095, 394.054 201.597, 394.191 194.450 C 394.296 188.977, 394.471 182.250, 394.581 179.500 C 395.459 157.505, 395.177 152.561, 392.620 145.081 C 389.575 136.173, 384.024 129.878, 377.148 127.535 C 372.106 125.817, 367.404 125.538, 366.558 126.906 M 353.500 128.438 C 351.300 129.155, 348.285 130.399, 346.800 131.201 C 343.937 132.749, 336.004 141.764, 335.994 143.482 C 335.990 144.042, 335.365 145.694, 334.603 147.153 C 331.420 153.255, 330.940 157.182, 330.826 178.102 C 330.702 200.758, 331.167 205.288, 333.946 208.500 C 337.611 212.736, 339.550 217.524, 339.415 222 C 339.340 224.475, 339.216 229.988, 339.139 234.250 C 339.056 238.898, 338.581 242, 337.952 242 C 337.376 242, 334.563 243.483, 331.702 245.295 C 326.142 248.818, 324.225 249.769, 311 255.565 C 306.325 257.614, 301.600 259.870, 300.500 260.579 C 299.400 261.288, 295.835 262.859, 292.578 264.070 C 281.643 268.137, 260 280.746, 260 283.050 C 260 283.469, 258.393 285.735, 256.428 288.086 C 254.464 290.437, 251.960 294.119, 250.863 296.268 C 248.066 301.752, 245.747 314.474, 246.424 320.624 C 246.910 325.045, 246.216 328.062, 241.361 342.624 C 238.266 351.906, 235.382 362.200, 234.951 365.500 C 234.252 370.862, 233.273 374.979, 229.822 387.061 C 228.498 391.696, 227.986 398.274, 227.569 416 C 227.381 423.975, 226.968 431.175, 226.650 432 C 224.230 438.277, 218.458 455.682, 217.613 459.250 C 217.255 460.762, 217.308 462, 217.731 462 C 218.154 462, 220.053 457.387, 221.952 451.750 C 223.850 446.112, 225.763 441.073, 226.202 440.550 C 226.641 440.028, 227 438.742, 227 437.693 C 227 436.372, 227.482 435.971, 228.568 436.388 C 229.944 436.916, 230.092 435.704, 229.778 426.495 C 229.582 420.723, 229.719 416.563, 230.084 417.250 C 230.449 417.938, 231.958 423, 233.436 428.500 C 237.822 444.813, 239.135 448.965, 240.092 449.557 C 240.592 449.866, 241 449.566, 241 448.892 C 241 448.218, 241.266 447.932, 241.590 448.257 C 242.696 449.363, 250.482 445.925, 253.502 442.998 C 258.270 438.376, 258.994 439.859, 258.625 453.499 C 258.448 460.052, 258.630 466.860, 259.029 468.629 C 259.428 470.398, 259.415 472.218, 259 472.673 C 258.585 473.128, 257.473 475.975, 256.529 479 C 255.585 482.025, 253.557 487.200, 252.022 490.500 C 250.487 493.800, 248.023 500.550, 246.547 505.500 C 245.071 510.450, 242.544 517.596, 240.931 521.379 C 239.319 525.163, 238 528.902, 238 529.688 C 238 530.474, 236.607 535.242, 234.905 540.283 C 232.290 548.022, 231.818 550.895, 231.866 558.757 C 231.897 563.877, 232.163 568.454, 232.456 568.928 C 232.749 569.403, 232.316 570.048, 231.494 570.364 C 230.672 570.679, 230 571.642, 230 572.504 C 230 573.365, 229.363 575.067, 228.586 576.285 C 226.759 579.146, 221.474 595.767, 219.933 603.500 C 219.275 606.800, 217.816 611.638, 216.690 614.250 C 215.052 618.051, 214.158 619, 212.215 619 C 210.286 619, 209.939 618.640, 210.528 617.250 C 213.122 611.128, 214.250 606.774, 214.606 601.500 C 215.009 595.529, 214.099 596.311, 212.568 603.250 C 212.112 605.317, 211.366 606, 209.563 606 C 205.168 606, 204.427 605.214, 204.831 600.980 C 205.311 595.940, 204.388 595.847, 203.054 600.801 C 202.082 604.411, 201.853 604.581, 198.515 604.192 C 194.515 603.725, 194.337 603.025, 196.180 595.039 C 197.101 591.052, 197.707 590.058, 198.930 590.528 C 202.112 591.752, 220 592.235, 220 591.097 C 220 590.494, 218.313 589.981, 216.250 589.959 C 207.576 589.863, 200.210 588.625, 195.241 586.428 L 189.944 584.085 192.222 579.570 C 193.952 576.141, 195.101 575.021, 197 574.912 C 205.433 574.430, 212.638 570.813, 215.153 565.797 C 218.277 559.568, 219.700 554.449, 218.019 555.488 C 217.164 556.017, 217.417 545.249, 218.280 544.386 C 218.432 544.235, 220.344 544.525, 222.528 545.031 C 224.713 545.538, 227.625 545.949, 229 545.946 C 232.719 545.936, 229.830 544.625, 221.365 542.481 L 214.229 540.674 214.557 536.587 C 214.891 532.436, 215.533 518.394, 216.504 494 C 216.800 486.575, 217.287 476.675, 217.586 472 C 218.002 465.501, 217.854 463.773, 216.956 464.659 C 215.844 465.756, 214.891 478.388, 213.571 509.500 C 212.708 529.847, 211.976 538.932, 210.991 541.523 C 210.459 542.922, 208.394 544.773, 206.273 545.753 C 201.953 547.748, 192.913 556.521, 188.500 563.002 C 182.075 572.437, 176.113 585.284, 178.982 583.511 C 179.929 582.926, 183.906 575.978, 187.930 567.879 C 189.689 564.340, 190.800 564.221, 191.481 567.500 C 191.766 568.875, 192.222 571.078, 192.493 572.396 C 192.840 574.080, 191.777 576.604, 188.919 580.883 C 186.683 584.233, 184.416 587.243, 183.882 587.573 C 183.349 587.903, 181.768 587.423, 180.369 586.506 C 177.518 584.638, 175.834 585.302, 178.060 587.416 C 180.812 590.032, 183.764 590.236, 186.032 587.968 C 187.206 586.794, 188.305 585.983, 188.473 586.167 C 188.642 586.350, 187.937 589.650, 186.908 593.500 C 184.659 601.911, 183.324 614, 184.644 614 C 185.156 614, 185.646 612.987, 185.733 611.750 C 185.821 610.513, 186.150 608.102, 186.465 606.392 C 186.954 603.735, 187.393 603.352, 189.492 603.754 C 191.821 604.199, 191.915 604.487, 191.331 609.362 C 190.993 612.188, 190.729 615.472, 190.746 616.659 C 190.774 618.616, 190.502 618.722, 187.838 617.794 C 186.221 617.230, 184.651 617.016, 184.349 617.318 C 183.386 618.281, 185.052 620, 186.948 620 C 188.249 620, 188.968 621.016, 189.437 623.517 C 189.800 625.451, 189.853 627.429, 189.554 627.912 C 188.855 629.044, 191.924 630.382, 194.469 630.054 C 195.553 629.914, 197.128 629.057, 197.969 628.150 C 198.852 627.198, 200.632 626.631, 202.176 626.809 C 204.190 627.042, 205.400 626.379, 207.062 624.130 C 208.617 622.027, 210.078 621.164, 211.992 621.219 C 213.488 621.261, 215.177 621.009, 215.746 620.657 C 217.010 619.876, 221.905 607.851, 222.460 604.166 C 223.724 595.763, 224.560 592.651, 227.742 584.500 C 229.675 579.550, 231.918 574.200, 232.726 572.610 C 233.771 570.556, 234.161 566.685, 234.074 559.225 C 233.978 550.915, 234.343 547.872, 235.824 544.614 C 236.853 542.351, 238.722 536.675, 239.978 532 C 241.235 527.325, 243.046 521.700, 244.004 519.500 C 245.958 515.012, 249.667 504.555, 251.451 498.500 C 252.100 496.300, 253.135 493.375, 253.752 492 C 260.587 476.765, 260.647 476.391, 261.043 446.500 C 261.170 436.913, 261.316 436.284, 264.587 431.267 C 267.538 426.740, 271.403 415.235, 273.747 404 C 274.034 402.625, 274.597 401.050, 274.998 400.500 C 275.399 399.950, 276.022 397.568, 276.382 395.206 C 276.743 392.845, 277.430 390.145, 277.910 389.206 C 279.028 387.021, 282 376.725, 282 375.040 C 282 372.295, 279.048 376.226, 278.388 379.850 C 278.022 381.858, 276.435 387.018, 274.861 391.318 C 273.288 395.618, 272 400.058, 272 401.184 C 272 402.310, 271.356 405.317, 270.568 407.866 C 269.780 410.415, 268.144 415.875, 266.933 420 C 264.548 428.116, 263.126 430.384, 255.513 438.201 C 250.655 443.189, 242.895 447.671, 241.069 446.543 C 240.570 446.234, 239.660 443.624, 239.047 440.741 C 238.434 437.858, 237.089 433.025, 236.058 430 C 235.027 426.975, 233.630 422.025, 232.954 419 C 232.277 415.975, 231.362 412.002, 230.921 410.172 C 229.993 406.324, 232.239 386.191, 234.516 377.939 C 235.342 374.948, 236.484 369.800, 237.054 366.500 C 238.223 359.736, 240.635 350.999, 242.588 346.458 C 243.308 344.785, 244.431 341.185, 245.085 338.458 C 247.047 330.269, 247.082 330.226, 248.763 334 C 253.181 343.918, 258.424 354, 259.164 354 C 260.404 354, 260.239 353.404, 257.487 347.974 C 256.104 345.246, 254.904 342.673, 254.820 342.257 C 254.735 341.841, 253.669 339.475, 252.449 337 C 246.857 325.651, 247.278 309.943, 253.513 297.295 C 257.164 289.889, 266.130 279, 268.577 279 C 269.334 279, 270.629 277.969, 271.455 276.709 C 272.281 275.449, 274.654 273.805, 276.728 273.057 C 280.202 271.804, 285.375 269.546, 298.500 263.554 C 301.250 262.299, 306.200 260.238, 309.500 258.975 C 312.800 257.712, 316.210 256.076, 317.079 255.340 C 317.947 254.603, 319.235 254, 319.940 254 C 320.645 254, 324.947 251.750, 329.500 249 C 334.053 246.250, 338.053 244, 338.389 244 C 338.725 244, 339 245.548, 339 247.441 C 339 249.334, 339.450 251.160, 340 251.500 C 340.631 251.890, 341.046 249.148, 341.125 244.059 C 341.238 236.746, 341.548 227.551, 341.875 221.800 C 342.079 218.204, 343.521 220.935, 345.938 229.500 C 350.323 245.036, 357.802 263.093, 358.716 260.352 C 358.895 259.815, 357.682 256.079, 356.021 252.050 C 354.359 248.021, 353 244.089, 353 243.313 C 353 242.536, 352.286 240.519, 351.412 238.831 C 349.883 235.873, 346.958 226, 347.612 226 C 347.787 226, 349.576 227.445, 351.587 229.211 C 354.354 231.640, 356.492 232.553, 360.372 232.961 C 369.353 233.905, 371.549 233.265, 376.970 228.121 C 381.234 224.076, 382.067 223.636, 382.555 225.174 C 382.871 226.169, 382.845 227.441, 382.498 228.003 C 381.584 229.483, 383.112 250, 384.136 250 C 384.611 250, 385 248.213, 385 246.029 L 385 242.058 389.750 244.991 C 396.697 249.280, 409.540 256.031, 426 264.045 C 452.730 277.060, 455.254 278.478, 460.944 283.678 C 464.061 286.526, 467.705 291.026, 469.042 293.678 C 470.379 296.330, 471.929 298.831, 472.487 299.235 C 473.067 299.656, 473.095 299.976, 472.550 299.985 C 472.027 299.993, 472.140 300.540, 472.800 301.200 C 473.460 301.860, 474 303.380, 474 304.578 C 474 305.775, 474.746 307.373, 475.657 308.128 C 477.169 309.380, 477.248 309.149, 476.568 305.500 C 474.637 295.144, 464.471 281.285, 455.500 276.780 C 453.300 275.676, 450.110 273.731, 448.412 272.458 C 446.714 271.186, 440.639 268.042, 434.912 265.472 C 419.833 258.703, 399.282 248.216, 393.511 244.346 C 390.768 242.506, 387.730 241, 386.761 241 C 385.319 241, 384.978 240.049, 384.876 235.750 C 384.633 225.468, 385.211 219.478, 386.595 217.921 C 387.368 217.053, 388 215.815, 388 215.171 C 388 214.527, 388.413 214, 388.918 214 C 390.044 214, 394 207.755, 394 205.977 C 394 205.102, 393.360 205.269, 392 206.500 C 390.900 207.495, 390 208.748, 390 209.284 C 390 209.819, 388.538 211.957, 386.750 214.033 C 384.962 216.110, 381.475 220.296, 379 223.336 C 375.443 227.706, 373.662 229.043, 370.500 229.717 L 366.500 230.570 366.206 223.785 C 366.045 220.053, 365.595 217, 365.206 216.999 C 364.818 216.999, 364.540 209.281, 364.590 199.849 L 364.680 182.700 375.090 182.406 C 380.815 182.244, 386.764 182.086, 388.309 182.056 C 389.854 182.025, 390.866 181.592, 390.557 181.093 C 390.249 180.594, 384.260 180.323, 377.248 180.491 L 364.500 180.797 364.500 155.148 C 364.500 141.042, 364.339 128.938, 364.143 128.250 C 363.690 126.663, 358.673 126.751, 353.500 128.438 M 352.986 130.654 C 345.226 133.710, 342.454 136.567, 337.128 147 C 333.973 153.180, 333.783 154.177, 333.256 167.250 L 332.703 181 347.352 181 L 362 181 362.077 164.750 C 362.119 155.813, 362.231 143.942, 362.327 138.371 C 362.527 126.691, 362.695 126.830, 352.986 130.654 M 338.103 182.807 L 332.705 183.115 333.304 193.698 C 333.974 205.529, 334.621 206.895, 346.234 221 C 351.987 227.988, 355.566 230.341, 360.839 230.603 L 364.177 230.769 363.839 225.884 C 363.652 223.197, 363.864 220.999, 364.309 220.999 C 364.754 221, 364.835 220.542, 364.488 219.981 C 363.392 218.208, 362.651 206.897, 362.866 195.233 C 363.022 186.786, 362.752 183.859, 361.787 183.538 C 359.937 182.923, 344.455 182.446, 338.103 182.807 M 363.383 238.610 C 363.023 240.045, 362.677 248.369, 362.614 257.107 C 362.505 272.248, 362.406 273, 360.500 273.113 C 356.431 273.352, 354.411 272.792, 350.750 270.411 C 346.083 267.375, 345.522 269.531, 350.098 272.914 C 352.252 274.507, 354.723 275.250, 358.207 275.352 L 363.218 275.500 362.660 288 C 362.354 294.875, 361.862 302.300, 361.569 304.500 C 361.275 306.700, 360.876 341.161, 360.681 381.080 C 360.487 420.999, 360.002 454.187, 359.605 454.830 C 359.207 455.474, 359.206 456.524, 359.601 457.164 C 359.997 457.804, 360.166 463.767, 359.976 470.414 C 359.535 485.857, 359.544 531.318, 359.988 536.292 C 361.032 547.964, 361.528 535.632, 361.765 492.154 C 361.911 465.394, 362.240 440.125, 362.496 436 C 362.752 431.875, 363.002 409.992, 363.052 387.371 L 363.143 346.243 366.321 346.971 C 371.296 348.111, 383.903 352.085, 390.466 354.581 C 397.341 357.197, 400.429 356.635, 393.865 353.964 C 389.031 351.997, 386.902 351.278, 385.697 351.208 C 385.256 351.182, 383.904 350.512, 382.693 349.719 C 381.483 348.925, 378.919 348.033, 376.996 347.737 C 375.073 347.440, 371.250 346.559, 368.500 345.779 L 363.500 344.361 363.827 324.431 C 364.006 313.469, 364.285 289.591, 364.445 271.368 C 364.605 253.145, 365.047 237.733, 365.427 237.118 C 365.807 236.503, 365.650 236, 365.078 236 C 364.506 236, 363.743 237.174, 363.383 238.610 M 385.250 266.390 C 381.813 266.879, 379 267.561, 379 267.904 C 379 268.943, 421.362 268.038, 422.424 266.976 C 423.059 266.341, 420.794 265.965, 415.950 265.900 C 411.853 265.845, 404.675 265.732, 400 265.650 C 395.325 265.567, 388.688 265.900, 385.250 266.390 M 297.556 266.883 C 298.244 267.619, 306.070 268.196, 320.041 268.541 C 334.610 268.901, 341.144 268.744, 340.451 268.051 C 338.962 266.562, 296.165 265.397, 297.556 266.883 M 427.115 270.209 C 427.589 272.569, 428.215 278.550, 428.507 283.500 C 428.798 288.450, 429.461 294.750, 429.980 297.500 C 432.388 310.260, 434.380 318, 435.256 318 C 435.783 318, 435.934 317.270, 435.591 316.378 C 434.034 312.318, 431.525 295.217, 430.549 282 C 429.781 271.599, 428.797 266.766, 427.351 266.284 C 426.581 266.027, 426.510 267.196, 427.115 270.209 M 293.927 272.750 C 293.836 274.922, 292.447 282.875, 291 289.500 C 290.399 292.250, 289.499 296.525, 288.998 299 C 285.626 315.683, 285.372 316.503, 283.679 316.206 C 281.463 315.818, 281.545 317.482, 283.851 319.711 C 284.869 320.695, 286.844 324.033, 288.240 327.128 L 290.778 332.757 282.998 340.878 C 278.719 345.345, 274.564 349, 273.764 349 C 272.964 349, 271.596 349.788, 270.723 350.750 C 269.850 351.712, 267.085 353.400, 264.578 354.500 C 262.070 355.600, 260.015 356.837, 260.009 357.250 C 259.993 358.551, 261.625 358.085, 267.647 355.071 C 273.547 352.119, 275.414 350.859, 281.608 345.646 C 285.915 342.023, 285.908 341.990, 283.621 355.558 C 281.109 370.467, 280.958 372, 282.005 372 C 282.552 372, 282.929 371.663, 282.841 371.250 C 282.754 370.837, 282.922 369.825, 283.215 369 C 283.884 367.113, 285.473 358.097, 287.143 346.710 C 287.993 340.914, 289.024 337.384, 290.169 336.347 C 291.771 334.897, 291.957 334.981, 292.572 337.432 C 292.939 338.893, 293.023 346.031, 292.758 353.294 C 292.494 360.557, 292.639 369.425, 293.081 373 C 293.523 376.575, 294.160 383.325, 294.497 388 C 295.994 408.824, 297.760 418.039, 301.876 426.500 C 303.052 428.918, 303.432 430.733, 302.838 431.100 C 302.299 431.433, 301.707 433.235, 301.524 435.103 C 301.196 438.457, 299.751 447.808, 298.388 455.405 C 297.914 458.048, 298.029 459.100, 298.743 458.659 C 299.754 458.034, 302.145 448.321, 303.544 439.156 L 304.208 434.812 306.019 437.656 C 308.188 441.063, 315.960 448.555, 321.500 452.582 C 323.700 454.180, 325.725 455.764, 326 456.100 C 326.275 456.436, 331.225 459.084, 337 461.985 C 352.769 469.905, 355.255 471.078, 355.582 470.751 C 355.746 470.587, 353.518 467.988, 350.629 464.976 C 346.201 460.359, 337.023 447.460, 333.300 440.622 C 332.737 439.588, 332.012 439.172, 331.688 439.696 C 330.923 440.934, 340.257 456.543, 344.268 460.735 C 345.970 462.514, 347.140 464.193, 346.867 464.466 C 345.860 465.473, 330.806 456.939, 323.273 451.090 C 308.539 439.650, 308.313 439.361, 303.916 426.358 C 299.340 412.824, 299.057 411.746, 298.571 406 C 298.363 403.525, 297.516 395.358, 296.690 387.852 C 295.865 380.346, 295.152 366.941, 295.106 358.064 L 295.022 341.923 299.011 345.129 C 301.205 346.892, 303.003 348.597, 303.007 348.917 C 303.016 349.663, 309.867 354.347, 311.366 354.633 C 319.379 356.160, 319.530 356.047, 313.500 353.051 C 302.443 347.558, 293.578 336.801, 288.896 323.197 C 286.889 317.365, 286.984 316.105, 290.483 302 C 292.621 293.383, 294.121 285.084, 295.407 274.750 C 295.664 272.688, 295.453 271, 294.937 271 C 294.422 271, 293.967 271.788, 293.927 272.750 M 475.667 315.910 C 474.774 324.455, 472.230 335.028, 469.509 341.500 C 464.095 354.377, 463.015 357.348, 463.551 357.885 C 464.336 358.669, 467 355.061, 467 353.213 C 467 352.441, 467.669 350.614, 468.486 349.154 C 470.409 345.721, 472.710 339.111, 474.750 331.162 L 476.377 324.824 478.712 332.662 C 479.997 336.973, 481.466 342.750, 481.977 345.500 C 482.488 348.250, 483.602 353.650, 484.454 357.500 C 485.865 363.882, 487.573 373.290, 489.992 388 C 490.490 391.025, 491.145 395.975, 491.449 399 C 492.598 410.428, 494.415 422, 495.061 422 C 496.006 422, 495.289 405.550, 494.104 400.063 C 492.738 393.736, 490.667 379.916, 490.724 377.500 C 490.780 375.092, 488.280 361.696, 486.991 357.500 C 486.484 355.850, 484.880 349.325, 483.425 343 C 481.970 336.675, 480.093 329.925, 479.253 328 C 478.292 325.799, 477.800 322.030, 477.925 317.848 C 478.176 309.498, 476.489 308.049, 475.667 315.910 M 437.954 318.086 C 436.215 321.336, 437.777 321.677, 440.758 318.697 C 443.380 316.075, 443.394 316, 441.262 316 C 440.057 316, 438.568 316.939, 437.954 318.086 M 433.778 326.020 C 432.914 327.384, 431.882 329.625, 431.482 331 C 430.729 333.592, 425.922 340.039, 420.407 345.855 C 418.657 347.700, 413.687 350.955, 409.363 353.088 C 403.469 355.995, 402.163 356.971, 404.148 356.983 C 407.226 357.003, 416.627 352.277, 421.497 348.263 C 423.349 346.737, 426.309 343.465, 428.074 340.994 C 429.840 338.522, 431.407 336.351, 431.557 336.169 C 431.706 335.987, 432.703 336.306, 433.772 336.878 C 435.259 337.674, 435.846 339.363, 436.273 344.075 C 437.004 352.137, 439 354.424, 439 347.200 C 439 344.340, 439.197 342, 439.438 342 C 439.679 342, 441.367 343.392, 443.188 345.094 C 448.385 349.950, 456.281 355.603, 458.750 356.236 C 462.036 357.078, 461.531 356.356, 456.750 353.375 C 454.413 351.918, 450.543 348.763, 448.151 346.363 C 445.759 343.963, 443.509 341.988, 443.151 341.972 C 442.793 341.957, 441.197 340.616, 439.605 338.993 C 438.012 337.370, 435.875 335.778, 434.855 335.454 C 432.602 334.739, 432.578 334.255, 434.552 329.529 C 436.453 324.981, 435.931 322.618, 433.778 326.020 M 429.893 339.629 C 428.834 340.904, 428.452 345.644, 428.298 359.403 C 428.187 369.356, 427.623 381.775, 427.044 387 C 426.466 392.225, 425.821 398.525, 425.610 401 C 425.060 407.454, 422.678 418, 421.771 418 C 421.347 418, 421 418.960, 421 420.134 C 421 421.308, 420.478 424.009, 419.841 426.137 C 418.928 429.185, 418.961 430.589, 419.998 432.753 C 421.352 435.580, 421.881 438.234, 424.078 453.224 C 425.233 461.103, 425.195 462.128, 423.679 463.803 C 422.755 464.823, 422 466.072, 421.999 466.579 C 421.999 467.085, 420.195 470.425, 417.991 474 C 415.787 477.575, 412.126 484.325, 409.855 489 C 406.424 496.065, 395.548 511.288, 389.817 517.048 C 389.022 517.846, 386.728 521.072, 384.720 524.216 C 382.712 527.359, 380.359 530.734, 379.491 531.716 C 378.624 532.697, 375.883 536.087, 373.402 539.250 L 368.890 545 363.068 545 C 359.587 545, 356.822 545.510, 356.193 546.267 C 355.198 547.466, 354.020 579.276, 353.518 618.500 C 353.337 632.655, 352.690 650.939, 351.467 676.500 C 351.023 685.788, 350.207 694.586, 349.508 697.638 C 346.608 710.296, 344.756 746, 347 746 C 347.955 746, 348.390 738.951, 348.170 727 C 348.115 723.975, 348.705 717.450, 349.483 712.500 C 353.401 687.560, 353.785 683.631, 354.522 661 C 354.835 651.375, 355.312 639.450, 355.582 634.500 C 355.852 629.550, 356.320 609.750, 356.623 590.500 C 356.926 571.250, 357.247 553.740, 357.337 551.589 L 357.500 547.678 362.576 547.423 L 367.651 547.168 367.772 552.834 C 367.838 555.950, 368.150 561.875, 368.464 566 C 368.777 570.125, 369.267 590.600, 369.551 611.500 C 370.432 676.258, 371.052 691.305, 373.531 708 C 373.735 709.375, 374.364 713.786, 374.930 717.801 C 375.982 725.273, 377.907 730.717, 377.970 726.398 C 377.986 725.241, 376.915 715.566, 375.589 704.898 C 373.939 691.629, 373.153 680.024, 373.099 668.171 C 373.056 658.641, 372.784 650.459, 372.494 649.990 C 372.204 649.520, 371.759 630.993, 371.506 608.818 C 371.252 586.643, 370.785 563.614, 370.467 557.641 L 369.889 546.782 374.783 541.141 C 377.475 538.039, 382.424 531.414, 385.782 526.419 C 389.140 521.425, 392.656 516.700, 393.596 515.920 C 395.218 514.574, 400.582 507.649, 405.928 500 C 408.471 496.362, 414.360 485.745, 418.105 478.049 L 420.271 473.598 423.779 480.549 C 425.708 484.372, 428.061 490.650, 429.008 494.500 C 430.752 501.597, 432.816 508.054, 435.080 513.500 C 437.471 519.254, 438.016 533.877, 436.068 540 C 433.455 548.209, 423.827 558.821, 418.249 559.640 C 417.397 559.765, 416.414 560.329, 416.065 560.895 C 415.716 561.460, 413.646 562.679, 411.465 563.604 C 409.284 564.529, 407.989 565.460, 408.588 565.672 C 409.672 566.057, 416.463 563.090, 422.880 559.429 C 429.933 555.403, 438.020 545.489, 438.638 540.108 C 438.803 538.674, 439.350 535.700, 439.854 533.500 C 440.608 530.208, 440.790 529.987, 440.885 532.250 C 440.948 533.763, 441.490 535, 442.088 535 C 443.461 535, 442.381 527.678, 440.405 523.596 C 439.632 521.999, 439 519.840, 439 518.797 C 439 517.754, 438.390 515.686, 437.644 514.200 C 436.899 512.715, 435.474 508.350, 434.479 504.500 C 433.484 500.650, 432.357 497.050, 431.976 496.500 C 431.594 495.950, 430.985 493.941, 430.623 492.036 C 430.261 490.131, 428.173 484.871, 425.982 480.345 C 423.792 475.820, 422 471.796, 422 471.403 C 422 471.010, 423.188 469.132, 424.639 467.229 C 427.135 463.957, 427.242 463.353, 426.610 456.134 C 425.715 445.918, 425.508 444.627, 423.470 436.516 C 421.798 429.858, 421.798 429.182, 423.471 422.016 C 424.436 417.882, 425.661 413.150, 426.193 411.500 C 426.725 409.850, 427.564 405.125, 428.057 401 C 428.550 396.875, 429.374 390.125, 429.888 386 C 430.401 381.875, 430.619 371.414, 430.371 362.754 C 430.091 352.940, 430.337 345.461, 431.026 342.903 C 432.282 338.240, 431.918 337.190, 429.893 339.629 M 353 348.126 C 349.975 349.256, 346.150 350.560, 344.500 351.024 C 337.680 352.944, 326.164 357.457, 326.539 358.064 C 326.954 358.735, 341.924 354.753, 345.500 353.020 C 346.600 352.487, 350.087 351.107, 353.250 349.954 C 356.413 348.800, 359 347.439, 359 346.928 C 359 345.789, 359.558 345.677, 353 348.126 M 439.316 359 C 441.609 379.258, 444.681 393.046, 450.565 409.500 C 451.351 411.700, 452.181 415.075, 452.408 417 C 453.029 422.258, 454.719 425.951, 459.111 431.644 L 463.084 436.794 462.499 448.647 C 461.940 459.953, 462.537 468.796, 463.776 467.557 C 464.094 467.240, 464.492 461.028, 464.660 453.754 C 464.829 446.480, 465.196 439.930, 465.477 439.199 C 465.832 438.273, 467.507 439.151, 470.999 442.096 C 473.756 444.421, 476.302 446.031, 476.658 445.675 C 477.014 445.319, 476.029 444.024, 474.470 442.798 C 469.275 438.711, 459.119 428.132, 457.671 425.297 C 456.884 423.759, 455.908 420.925, 455.501 419 C 454.867 415.999, 452.276 407.536, 447.887 394.131 C 447.281 392.278, 446.655 389.578, 446.497 388.131 C 446.339 386.684, 445.467 381.675, 444.558 377 C 443.650 372.325, 442.452 365.800, 441.895 362.500 C 440.659 355.163, 438.559 352.314, 439.316 359 M 399.377 382.821 C 399.282 402.037, 398.873 409.271, 397.533 415.500 C 395.767 423.711, 394.881 428.364, 394.581 431 C 394.487 431.825, 393.643 434.242, 392.705 436.372 C 391.767 438.502, 391 440.693, 391 441.242 C 391 443.698, 379.530 461.051, 374.470 466.250 C 371.391 469.413, 369.354 472, 369.942 472 C 371.328 472, 383 460.626, 383 459.275 C 383 458.708, 383.722 457.646, 384.604 456.914 C 385.486 456.181, 386.636 454.664, 387.159 453.541 C 387.681 452.418, 388.945 449.925, 389.966 448 C 393.810 440.757, 398.330 424.391, 400.184 411 C 401.694 400.096, 401.891 362.363, 400.451 359.821 C 399.828 358.721, 399.458 366.644, 399.377 382.821 M 325.676 364.750 C 323.215 372.622, 321.688 387.184, 322.348 396.481 C 322.685 401.237, 323.220 405.546, 323.535 406.057 C 323.851 406.568, 324.315 408.902, 324.567 411.243 C 325.235 417.464, 328.078 428.930, 329.110 429.568 C 330.343 430.330, 330.235 428.871, 328.450 420.643 C 327.597 416.714, 326.464 411.475, 325.932 409 C 324.317 401.489, 324.618 376.302, 326.397 370 C 327.251 366.975, 328.239 363.488, 328.592 362.250 C 329.875 357.747, 327.129 360.102, 325.676 364.750 M 488.672 418.500 C 486.842 429.017, 484.472 437.938, 482.342 442.332 C 479.514 448.167, 479.525 448, 481.980 448 C 485.389 448, 488.070 441.008, 489.156 429.286 C 490.192 418.113, 489.894 411.481, 488.672 418.500 M 494.801 428.738 C 494.609 429.707, 495.090 432.525, 495.870 435 C 498.901 444.609, 502.209 454.589, 502.995 456.500 C 503.448 457.600, 504.070 459.288, 504.378 460.250 C 504.686 461.212, 505.370 462, 505.899 462 C 506.871 462, 506.634 460.930, 503.679 452 C 500.572 442.611, 496.991 430.454, 496.996 429.309 C 497.003 427.325, 495.176 426.849, 494.801 428.738 M 330.015 433.191 C 330.007 434.121, 330.450 435.160, 331 435.500 C 332.266 436.282, 332.266 434.958, 331 433 C 330.165 431.707, 330.029 431.734, 330.015 433.191 M 413.775 438.583 C 408.640 446.581, 396.495 458.147, 389.020 462.158 C 386.295 463.621, 382.813 465.685, 381.283 466.746 C 379.752 467.807, 377.648 468.983, 376.607 469.361 C 375.566 469.738, 374.974 470.308, 375.293 470.626 C 376.564 471.897, 393.688 462.190, 401.977 455.500 C 408.851 449.952, 419.627 435.363, 418.756 432.785 C 418.517 432.078, 416.276 434.687, 413.775 438.583 M 297 464.265 C 297 464.960, 297.934 467.272, 299.075 469.402 L 301.150 473.273 298.449 479.387 C 296.964 482.749, 294.292 488.650, 292.512 492.500 C 290.732 496.350, 288.509 502.200, 287.572 505.500 C 286.635 508.800, 284.998 514.021, 283.934 517.103 C 282.870 520.184, 282 523.431, 282 524.318 C 282 525.205, 281.258 528.083, 280.352 530.715 C 278.598 535.806, 278.480 542.559, 279.496 580 C 279.995 598.390, 280.594 607.333, 281.491 609.779 C 281.749 610.483, 282.249 617.683, 282.602 625.779 C 282.956 633.876, 283.527 640.725, 283.872 641 C 284.218 641.275, 284.604 645.550, 284.730 650.500 C 284.857 655.450, 285.417 662.200, 285.975 665.500 C 286.533 668.800, 287.204 673.300, 287.466 675.500 C 288.524 684.383, 292.422 699.450, 297.038 712.500 C 298.205 715.800, 299.247 718.950, 299.354 719.500 C 299.595 720.747, 301.785 726.477, 303.617 730.651 C 305.410 734.737, 305.385 735.078, 302.882 740.723 C 300.548 745.985, 299.152 749.152, 296.061 756.195 C 294.927 758.777, 294 761.758, 294 762.819 C 294 763.880, 293.304 766.718, 292.454 769.124 C 289.088 778.649, 288.441 788.148, 290.480 798.134 C 291.419 802.735, 292.330 807.850, 292.504 809.500 C 292.678 811.150, 293.097 815.200, 293.434 818.500 C 293.771 821.800, 295.203 828.550, 296.616 833.500 C 298.872 841.404, 302.095 857.275, 301.777 858.913 C 301.526 860.207, 303.317 867.571, 304.134 868.607 C 305.308 870.094, 304.519 888.367, 303.038 894 C 302.388 896.475, 301.613 899.967, 301.317 901.759 C 301.021 903.552, 300.396 905.256, 299.927 905.545 C 299.458 905.835, 299.889 907.522, 300.885 909.295 C 302.065 911.395, 302.424 913.212, 301.918 914.509 C 301.490 915.604, 301.109 917.784, 301.070 919.354 C 301.032 920.923, 299.486 925.198, 297.634 928.854 C 295.783 932.509, 292.078 940, 289.400 945.500 C 286.723 951, 283.723 956.714, 282.735 958.198 C 281.001 960.801, 281.003 960.931, 282.780 961.882 C 285.585 963.383, 341.058 962.275, 342.647 960.686 C 343.091 960.242, 343.392 957.994, 343.316 955.689 C 343.045 947.484, 341.058 920.425, 340.401 916 C 340.034 913.525, 339.572 910.150, 339.376 908.500 C 338.792 903.598, 338.840 887.772, 339.450 884 C 339.762 882.075, 340.689 874.943, 341.511 868.151 C 342.332 861.359, 343.217 855.457, 343.477 855.037 C 344.387 853.565, 346.049 835.653, 346.622 821.143 C 346.940 813.089, 347.340 804.700, 347.511 802.500 C 350.124 768.886, 350.278 748, 347.913 748 C 347.468 748, 347.116 751.487, 347.130 755.750 C 347.155 763.667, 344.496 818.852, 343.480 831.500 C 343.171 835.350, 342.743 841.451, 342.528 845.058 C 342.314 848.666, 341.433 855.191, 340.572 859.558 C 339.710 863.926, 338.813 870.200, 338.579 873.500 C 338.345 876.800, 337.684 881.336, 337.110 883.580 C 335.576 889.577, 336.095 902.768, 338.621 922 C 338.946 924.475, 339.415 929.425, 339.664 933 C 339.912 936.575, 340.427 942.875, 340.808 947 C 341.189 951.125, 341.360 955.712, 341.189 957.193 C 340.889 959.793, 340.673 959.882, 334.887 959.800 C 329.756 959.728, 329.003 959.484, 329.642 958.108 C 330.052 957.223, 330.413 954.475, 330.444 952 C 330.498 947.667, 332.010 945.270, 333.939 946.462 C 334.446 946.776, 335.104 946.641, 335.400 946.163 C 335.698 945.679, 326.636 945.317, 315.003 945.347 C 303.489 945.377, 293.849 945.182, 293.579 944.913 C 292.871 944.204, 295.205 937.916, 297.250 935.027 C 298.213 933.668, 299 932.180, 299 931.723 C 299 931.265, 299.859 929.002, 300.909 926.695 C 301.959 924.388, 303.135 920.813, 303.521 918.750 C 303.907 916.688, 304.565 915, 304.984 915 C 305.404 915, 305.788 912.943, 305.838 910.430 C 306.023 901.203, 314.842 889, 321.326 889 C 326.366 889, 329.553 893.288, 333.031 904.750 C 334.861 910.781, 335.977 910.030, 334.517 903.750 C 332.677 895.837, 329.321 889.947, 325.920 888.664 C 321.825 887.118, 322.281 886.366, 327.363 886.286 C 331.274 886.224, 336.739 884.405, 335.809 883.475 C 335.609 883.276, 333.433 883.568, 330.973 884.125 C 325.733 885.311, 319.606 884.573, 312.440 881.892 L 307.302 879.969 305.640 868.235 C 304.725 861.781, 303.283 853.125, 302.435 849 C 301.587 844.875, 300.500 839.475, 300.018 837 C 299.537 834.525, 298.400 829.575, 297.492 826 C 296.584 822.425, 295.409 815.675, 294.881 811 C 294.353 806.325, 293.332 799.950, 292.613 796.834 C 290.727 788.654, 291.622 777.138, 294.777 769 C 295.097 768.175, 295.479 766.825, 295.627 766 C 296.132 763.182, 299.251 754.507, 301.627 749.312 C 302.932 746.458, 304 743.746, 304 743.284 C 304 742.823, 304.723 741.412, 305.608 740.150 C 307.159 737.935, 307.276 737.919, 308.923 739.677 C 309.862 740.680, 312.102 742.625, 313.901 744 C 315.701 745.375, 317.886 747.175, 318.757 748 C 320.508 749.657, 327.949 752.150, 329.072 751.455 C 329.464 751.213, 331.441 750.803, 333.465 750.544 C 335.490 750.285, 338.688 749.120, 340.573 747.955 C 344.064 745.797, 345.171 744.337, 342.553 745.341 C 340.360 746.183, 339.795 740.006, 340.171 719.276 C 340.352 709.278, 340.131 701.467, 339.680 701.918 C 338.015 703.586, 337.060 732.439, 338.382 741.131 L 339.087 745.761 335.793 746.269 C 333.982 746.548, 331.150 746.672, 329.500 746.544 C 327.850 746.417, 325.280 746.242, 323.789 746.156 C 321.481 746.023, 320.914 745.367, 319.984 741.750 C 317.685 732.813, 314.797 725.011, 312.889 722.586 C 311.798 721.199, 310.518 717.688, 310.043 714.782 C 309.569 711.877, 308.190 705.675, 306.980 701 C 305.769 696.325, 304.367 690.025, 303.865 687 C 303.363 683.975, 302.289 679.808, 301.480 677.739 C 300.670 675.670, 300.059 673.645, 300.122 673.239 C 300.387 671.530, 299.945 670, 299.184 670 C 298.378 670, 301.108 685.769, 303.254 693.500 C 303.864 695.700, 304.258 697.908, 304.130 698.407 C 303.788 699.729, 306.223 709.335, 307.183 710.450 C 307.632 710.972, 308 712.422, 308 713.671 C 308 716.347, 313.428 731.606, 315.094 733.613 C 315.727 734.376, 315.949 735, 315.587 735 C 315.226 735, 315.433 735.941, 316.049 737.092 C 316.665 738.243, 317.342 740.550, 317.553 742.219 C 317.935 745.235, 317.925 745.242, 315.840 743.376 C 311.424 739.425, 307 734.770, 307 734.074 C 307 733.675, 304.819 727.308, 302.153 719.924 C 295.080 700.338, 294.141 696.804, 290.601 676.500 C 287.250 657.277, 284.243 626.334, 283.491 603.336 C 283.344 598.846, 282.897 594.642, 282.496 593.994 C 281.514 592.404, 280.867 537.200, 281.824 536.609 C 282.240 536.352, 283.337 538.270, 284.261 540.873 C 286.488 547.141, 298.485 559.625, 305.750 563.233 C 310.226 565.455, 309.851 563.684, 305.250 560.869 C 298.642 556.827, 290.879 548.701, 287.801 542.606 C 284.014 535.105, 283.317 528.324, 285.527 520.500 C 286.459 517.200, 287.802 512.438, 288.511 509.918 C 289.746 505.528, 292.231 499.082, 295.997 490.500 C 296.962 488.300, 298.770 484.121, 300.015 481.214 L 302.278 475.927 304.352 479.214 C 305.493 481.021, 306.893 483.211, 307.463 484.080 C 308.033 484.950, 309.486 487.200, 310.691 489.080 C 311.896 490.961, 313.376 493.063, 313.980 493.750 C 314.584 494.438, 314.836 495, 314.539 495 C 314.243 495, 314.788 495.849, 315.750 496.886 C 316.712 497.924, 319.300 501.374, 321.500 504.554 C 323.700 507.734, 328.754 514.091, 332.731 518.681 C 336.708 523.270, 340.848 528.971, 341.931 531.349 C 343.015 533.727, 344.598 536.252, 345.450 536.959 C 346.303 537.666, 347 538.777, 347 539.426 C 347 541.079, 353.817 547.517, 354.667 546.667 C 355.050 546.284, 354.001 544.514, 352.336 542.735 C 350.670 540.956, 347.184 535.846, 344.589 531.381 C 341.993 526.915, 337.003 520.236, 333.500 516.538 C 329.996 512.839, 323.965 505.018, 320.096 499.157 C 316.228 493.296, 312.373 487.621, 311.531 486.547 C 310.689 485.472, 310 484.192, 310 483.701 C 310 483.210, 308.988 481.399, 307.750 479.675 C 304.021 474.482, 300.776 468.536, 299.604 464.750 C 298.982 462.741, 297 462.371, 297 464.265 M 506.383 485.062 C 506.699 496.096, 507.201 505.517, 507.498 505.996 C 507.794 506.476, 508.200 511.129, 508.399 516.337 C 508.598 521.544, 509.059 526.286, 509.423 526.875 C 509.787 527.464, 510.298 529.616, 510.560 531.657 C 510.821 533.698, 511.252 535.585, 511.517 535.851 C 512.644 536.977, 512.776 535.185, 511.910 530.545 C 511.401 527.821, 510.796 522.196, 510.567 518.046 C 510.337 513.896, 509.858 506.225, 509.502 501 C 508.690 489.086, 508.332 481.489, 508.146 472.250 C 508.055 467.746, 507.585 465, 506.903 465 C 506.125 465, 505.974 470.825, 506.383 485.062 M 463.621 472.804 C 463.261 473.388, 464.114 476.461, 465.517 479.635 C 466.921 482.808, 469.147 489.026, 470.464 493.453 C 471.782 497.879, 473.747 503.750, 474.831 506.500 C 479.905 519.365, 481.230 523.082, 481.460 525.095 C 481.561 525.972, 482.623 528.067, 483.821 529.749 C 485.020 531.432, 486 533.882, 486 535.193 C 486 536.504, 486.885 539.314, 487.967 541.436 C 489.509 544.460, 489.929 547.284, 489.909 554.492 C 489.882 564.544, 490.754 570.015, 492.051 567.918 C 492.483 567.219, 492.612 562.031, 492.337 556.389 L 491.837 546.132 495.669 543.699 L 499.500 541.267 500.106 546.383 C 501.035 554.221, 508.657 569, 511.770 569 C 513.145 569, 513.141 568.812, 511.739 567.250 C 510.875 566.288, 509.420 563.622, 508.506 561.327 C 507.592 559.032, 506.248 556.926, 505.520 556.646 C 504.074 556.091, 502 547.838, 502 542.639 C 502 540.155, 502.735 538.833, 505.079 537.100 C 506.772 535.848, 507.902 534.569, 507.591 534.258 C 507.279 533.946, 503.604 536.046, 499.423 538.923 C 495.242 541.801, 491.618 543.952, 491.370 543.703 C 490.920 543.254, 487.030 532.813, 482.377 519.567 C 481.037 515.754, 479.578 512.154, 479.135 511.567 C 478.691 510.980, 477.524 507.800, 476.541 504.500 C 473.869 495.530, 471.377 488.205, 468.681 481.397 C 465.456 473.254, 464.425 471.503, 463.621 472.804 M 442.551 538.250 C 444.023 542.468, 443.654 560.324, 440.995 613.600 C 440.470 624.122, 439.819 633.355, 439.548 634.116 C 438.952 635.792, 436.429 654.593, 435.605 663.500 C 435.401 665.700, 434.689 670.425, 434.021 674 C 433.354 677.575, 432.676 681.850, 432.515 683.500 C 431.780 691.025, 430.826 696.663, 429.978 698.500 C 427.659 703.520, 420.342 725.663, 419.476 730.277 C 418.218 736.980, 420.562 734.205, 422.455 726.750 C 423.468 722.763, 424.632 719.050, 425.043 718.500 C 426.032 717.178, 431.509 700.709, 432.859 695 C 433.772 691.138, 435.286 681.990, 436.500 673 C 436.686 671.625, 437.317 667.350, 437.904 663.500 C 438.490 659.650, 439.460 651.791, 440.059 646.035 C 440.658 640.279, 441.308 635.310, 441.505 634.992 C 441.702 634.674, 442.120 631.283, 442.434 627.457 C 442.749 623.631, 443.482 615.179, 444.062 608.675 C 444.643 602.172, 445.001 593.847, 444.859 590.175 C 444.717 586.504, 444.981 573.938, 445.445 562.250 C 446.072 546.471, 445.994 541, 445.144 541 C 444.515 541, 444 539.875, 444 538.500 C 444 537.125, 443.498 536, 442.883 536 C 442.160 536, 442.043 536.791, 442.551 538.250 M 212.677 543.400 C 212.381 544.171, 209.520 546.531, 206.320 548.647 C 197.482 554.488, 191.658 560.652, 192.454 563.322 C 192.812 564.520, 193.366 567.197, 193.686 569.270 C 194.258 572.969, 194.337 573.029, 197.884 572.454 C 209.624 570.550, 210.559 570.050, 213.464 564.127 C 214.964 561.067, 215.777 558.426, 215.270 558.257 C 214.713 558.071, 214.698 555.341, 215.233 551.349 C 215.719 547.718, 215.880 544.130, 215.590 543.374 C 214.908 541.597, 213.363 541.611, 212.677 543.400 M 513.494 542.991 C 514.433 544.509, 528.449 557.926, 530.865 559.618 C 534.362 562.067, 533.309 560.040, 528.261 554.604 C 520.909 546.686, 510.926 538.836, 513.494 542.991 M 533 562.947 C 533 563.765, 535.199 568.098, 539.372 575.502 C 541.535 579.340, 543.958 582.376, 544.458 581.875 C 544.945 581.388, 541.519 574.307, 536.792 566.028 C 534.608 562.205, 533 560.898, 533 562.947 M 310 564.804 C 310 565.285, 311.154 566.205, 312.564 566.847 C 314.028 567.514, 314.862 567.585, 314.508 567.013 C 313.601 565.545, 310 563.781, 310 564.804 M 529 567.109 C 529 568.489, 528.379 570.467, 527.619 571.506 C 526.288 573.327, 526.021 573.334, 520.134 571.697 C 513.061 569.731, 513 569.723, 513 570.864 C 513 572.107, 520.656 574.770, 526.500 575.559 C 530.394 576.084, 531.247 575.966, 530.356 575.023 C 529.550 574.169, 529.500 572.775, 530.187 570.287 C 530.855 567.864, 530.822 566.422, 530.080 565.680 C 529.307 564.907, 529 565.312, 529 567.109 M 491.315 572.824 C 492.048 576.492, 497.568 588.615, 498.872 589.421 C 499.364 589.725, 500.078 592.567, 500.458 595.737 C 501.292 602.681, 503.517 610.589, 505.597 614 C 507.116 616.491, 507.119 616.488, 506.471 613 C 505.349 606.953, 505.429 606.511, 507.715 606.186 C 509.444 605.939, 510.063 606.487, 510.540 608.685 C 511.506 613.142, 517.251 624.643, 517.767 623.151 C 518.023 622.410, 517.743 620.835, 517.144 619.651 C 515.527 616.456, 512 607.071, 512 605.963 C 512 605.433, 513.320 605, 514.933 605 C 517.120 605, 518.025 605.571, 518.495 607.250 C 518.842 608.487, 519.488 610.400, 519.930 611.500 C 520.372 612.600, 521.722 616.771, 522.931 620.769 C 525.183 628.221, 528.122 631.658, 531.224 630.468 C 533.207 629.706, 535.105 625.438, 534.343 623.452 C 533.949 622.425, 534.409 621.706, 535.670 621.376 C 540.271 620.173, 541.114 614.422, 538.951 599 C 538.372 594.875, 537.493 590.256, 536.996 588.735 L 536.093 585.969 539.298 588.414 C 542.876 591.143, 546 590.461, 546 586.950 C 546 584.533, 545.113 584.464, 543.441 586.750 C 542.244 588.387, 541.991 588.340, 539.518 586.017 C 538.065 584.651, 535.967 582.064, 534.856 580.267 C 532.736 576.837, 530.258 575.715, 531.505 578.750 C 533.999 584.818, 536.038 594.035, 537.979 608 C 538.698 613.173, 538.583 614.959, 537.418 616.750 C 536.613 617.987, 535.576 619, 535.115 619 C 534.654 619, 533.580 615.513, 532.730 611.250 C 531.550 605.335, 531.458 603.160, 532.342 602.063 C 533.282 600.896, 533.171 600.749, 531.750 601.281 C 530.491 601.753, 530 601.435, 530 600.147 C 530 597.075, 526.800 588.799, 525.950 589.671 C 525.505 590.127, 525.780 592.942, 526.560 595.927 C 527.340 598.912, 527.871 601.458, 527.739 601.584 C 527.608 601.710, 525.700 601.946, 523.500 602.108 C 520.914 602.298, 519.581 602, 519.728 601.266 C 519.854 600.641, 519.292 598.244, 518.478 595.939 C 516.827 591.259, 516.571 588.617, 517.844 589.403 C 519.479 590.414, 532 586.434, 532 584.903 C 532 584.434, 530.849 584.487, 529.442 585.022 C 526.978 585.959, 500.932 589.339, 500.513 588.776 C 499.705 587.692, 493 572.738, 493 572.021 C 493 571.524, 492.480 570.797, 491.844 570.404 C 491.018 569.893, 490.867 570.585, 491.315 572.824 M 190.633 587.768 C 189.364 592.248, 187.722 601.055, 188.089 601.411 C 188.315 601.630, 189.372 601.965, 190.438 602.155 C 191.932 602.421, 192.577 601.700, 193.256 599 C 195.308 590.850, 195.302 589.930, 193.184 587.957 C 191.271 586.174, 191.088 586.161, 190.633 587.768 M 509.670 595.750 C 511.434 602.602, 512.690 604.115, 515.660 602.966 C 517.612 602.211, 517.725 601.766, 516.840 598.316 C 516.301 596.217, 515.615 593.487, 515.314 592.250 C 514.884 590.484, 514.060 590, 511.478 590 L 508.190 590 509.670 595.750 M 502.567 595.750 C 502.946 598.362, 503.632 601.228, 504.093 602.119 C 504.553 603.009, 504.609 604.058, 504.217 604.450 C 503.594 605.073, 509.004 604.122, 509.809 603.467 C 509.978 603.329, 509.416 601.538, 508.559 599.486 C 507.701 597.434, 507 594.686, 507 593.378 C 507 591.493, 506.469 591, 504.439 591 C 501.953 591, 501.898 591.140, 502.567 595.750 M 524.217 603.816 C 521.015 604.124, 520.951 604.223, 521.607 607.816 C 522.415 612.235, 525.288 621.422, 527.071 625.289 C 528.923 629.306, 531.423 628.416, 531.819 623.600 C 532.135 619.754, 529.628 606.427, 528.227 604.500 C 527.827 603.950, 526.023 603.642, 524.217 603.816 M 193.917 606.750 C 193.871 607.163, 193.698 608.400, 193.532 609.500 C 193.366 610.600, 192.894 615.142, 192.484 619.593 C 191.868 626.277, 191.995 627.784, 193.210 628.250 C 195.623 629.176, 196.930 627.658, 197.994 622.695 C 198.547 620.113, 199.457 615.867, 200.015 613.260 C 200.573 610.652, 200.812 607.952, 200.546 607.260 C 200.035 605.928, 194.059 605.469, 193.917 606.750 M 203.636 608.170 C 199.906 621.845, 199.755 624.394, 202.655 624.807 C 204.510 625.071, 205.249 623.977, 207.961 616.946 C 209.693 612.453, 210.973 608.655, 210.805 608.506 C 210.637 608.356, 209.037 607.920, 207.249 607.537 C 204.926 607.040, 203.895 607.220, 203.636 608.170 M 507.212 618.135 C 507.950 620.350, 510.824 621.576, 512.156 620.244 C 513.617 618.783, 513.330 618.481, 509.652 617.597 C 507.621 617.109, 506.921 617.263, 507.212 618.135 M 520.250 624.780 C 517.842 625.164, 517.307 626.454, 519.096 627.559 C 519.699 627.932, 520.909 627.519, 521.786 626.642 C 523.677 624.752, 523.298 624.293, 520.250 624.780 M 419.600 685.250 C 418.662 689.237, 417.723 693.598, 417.514 694.940 C 417.305 696.282, 416.717 698.307, 416.208 699.440 C 415.217 701.641, 412.517 712.902, 411.398 719.500 C 411.025 721.700, 409.396 726.425, 407.779 730 C 406.162 733.575, 404.481 737.400, 404.044 738.500 C 403.607 739.600, 402.782 741.673, 402.211 743.108 C 401.158 745.752, 397.863 747.018, 392.125 746.985 C 387.840 746.960, 387.201 745.877, 386.521 737.493 C 386.165 733.097, 385.455 725.675, 384.945 721 C 384.434 716.325, 384.013 712.163, 384.008 711.750 C 384.004 711.337, 383.571 711, 383.047 711 C 382.190 711, 382.305 715.312, 383.475 727 C 384.904 741.266, 385.070 745, 384.274 745 C 383.779 745, 382.101 743.671, 380.545 742.047 C 378.004 739.395, 377.780 738.621, 378.350 734.466 C 378.823 731.010, 378.669 729.941, 377.742 730.244 C 376.136 730.768, 374.518 742.618, 375.406 747.352 C 376.409 752.697, 378.234 751.933, 377.658 746.410 L 377.180 741.820 379.340 743.671 C 383.723 747.425, 389.246 749.503, 394.508 749.376 C 401.210 749.214, 411.186 745.631, 415.239 741.929 C 419.372 738.154, 417.734 738.200, 412.100 742.018 C 406.683 745.689, 403.952 745.960, 404.738 742.750 C 405.041 741.513, 405.623 740.050, 406.031 739.500 C 407.732 737.207, 413.044 722.532, 413.570 718.673 C 413.883 716.378, 415.188 710.900, 416.470 706.500 C 420.624 692.249, 423.453 678, 422.129 678 C 421.677 678, 420.539 681.263, 419.600 685.250 M 419 737.405 C 419 739.347, 424.067 755.724, 427.110 763.620 C 428.196 766.436, 429.352 770.486, 429.681 772.620 C 430.009 774.754, 430.660 776.990, 431.128 777.589 C 433.162 780.196, 432.839 798.240, 430.565 809 C 428.822 817.246, 425.044 837.186, 424.502 841 C 424.150 843.475, 423.226 847.525, 422.449 850 C 421.672 852.475, 420.870 855.400, 420.668 856.500 C 420.466 857.600, 420.025 859.175, 419.688 860 C 419.350 860.825, 418.462 864.650, 417.713 868.500 C 416.428 875.108, 416.127 875.625, 412.349 877.730 C 405.438 881.579, 390.114 882.542, 386.938 879.328 C 385.886 878.263, 385.058 874.031, 384.428 866.500 C 384.153 863.200, 383.491 856.675, 382.959 852 C 382.426 847.325, 381.788 841.700, 381.539 839.500 C 380.864 833.514, 378.712 796.594, 378.537 788 C 378.454 783.875, 378.285 773.975, 378.162 766 C 377.989 754.722, 377.690 751.930, 376.818 753.433 C 375.461 755.770, 376.383 812.398, 377.917 821 C 378.457 824.025, 379.101 831.450, 379.348 837.500 C 379.595 843.550, 380.074 849.178, 380.412 850.007 C 380.750 850.835, 381.427 856.685, 381.917 863.007 C 382.900 875.718, 383.566 881.139, 385.023 888.299 C 386.346 894.799, 386.227 900.006, 384.539 909.551 C 383.755 913.980, 382.807 921.855, 382.431 927.051 C 382.056 932.248, 381.565 938.975, 381.341 942 C 380.918 947.688, 380.710 954.568, 380.895 956.750 C 380.953 957.438, 381.428 958, 381.950 958 C 382.473 958, 383.035 955.413, 383.200 952.250 L 383.500 946.500 388.231 946.564 C 390.833 946.600, 393.271 946.938, 393.649 947.316 C 394.027 947.693, 394.541 950.477, 394.792 953.501 L 395.248 959 388.424 959 C 383.185 959, 381.874 959.274, 382.779 960.179 C 384.812 962.212, 429.899 961.531, 438.781 959.332 C 440.565 958.891, 440.919 958.304, 440.408 956.634 C 440.049 955.460, 439.419 954.050, 439.007 953.500 C 437.729 951.791, 429.388 934.761, 427.252 929.500 C 419.952 911.517, 420.277 912.676, 421.634 909.492 C 423.198 905.824, 423.319 904, 422 904 C 421.450 904, 421 904.571, 421 905.268 C 421 905.965, 419.875 908.191, 418.500 910.215 C 415.654 914.403, 415.499 915, 417.259 915 C 418.995 915, 420.568 917.769, 423.042 925.184 C 424.869 930.658, 432.198 946.318, 436.529 954 C 437.877 956.391, 437.798 956.551, 434.719 957.674 C 428.333 960.003, 426 959.028, 426 954.029 C 426 952.173, 422.084 946.700, 422.044 948.500 C 422.032 949.050, 422.670 951.638, 423.463 954.250 L 424.904 959 420.971 959 C 417.483 959, 416.975 958.689, 416.477 956.250 C 416.169 954.737, 415.527 952.038, 415.052 950.250 C 414.576 948.462, 414.483 946.943, 414.844 946.872 C 416.615 946.528, 420.789 946.032, 423.250 945.873 C 424.762 945.775, 426 945.369, 426 944.969 C 426 944.570, 418.913 944.433, 410.250 944.664 C 401.587 944.896, 392.137 944.809, 389.250 944.471 L 384 943.856 384 938.563 C 384 932.482, 387.515 905.459, 389.004 900.098 C 390.428 894.967, 394.059 889.015, 397.173 886.706 C 399.645 884.873, 400.122 884.835, 403.522 886.191 C 407.188 887.653, 409.065 890.313, 413.442 900.250 C 415.384 904.660, 416.313 905.140, 415.375 901.250 C 414.167 896.237, 409.030 887.066, 406.504 885.411 C 403.495 883.439, 403.921 882.466, 408.164 881.617 C 409.926 881.265, 412.196 880.227, 413.208 879.312 C 414.727 877.937, 415.261 877.878, 416.274 878.970 C 417.244 880.017, 417.239 880.146, 416.250 879.588 C 414.776 878.755, 414.535 880.595, 416 881.500 C 416.550 881.840, 417 884.104, 417 886.531 C 417 890.821, 421.431 902.902, 422.583 901.750 C 422.889 901.444, 422.209 898.177, 421.070 894.491 C 417.567 883.151, 418.383 874.790, 425.995 844 C 429.852 828.399, 430.127 826.857, 433.480 802 C 434.860 791.770, 434.961 788.229, 434.034 782.500 C 432.840 775.117, 429.529 762.212, 427.749 758 C 427.167 756.625, 425.250 751.327, 423.489 746.226 C 420.204 736.716, 419 734.350, 419 737.405 M 307.417 882.866 C 308.084 883.945, 304.267 899.506, 302.474 903.018 C 301.426 905.071, 301.426 905.863, 302.478 907.300 C 303.660 908.918, 303.824 908.833, 304.449 906.282 C 304.823 904.752, 306.465 900.656, 308.097 897.180 C 310.705 891.625, 311.635 890.606, 315.782 888.767 C 318.586 887.524, 319.891 886.500, 319 886.243 C 318.175 886.005, 315.108 884.948, 312.185 883.894 C 309.261 882.841, 307.116 882.378, 307.417 882.866 M 387.517 886.250 C 387.940 888.038, 388.247 890.850, 388.201 892.500 C 388.122 895.309, 388.275 895.195, 390.602 890.702 C 391.969 888.063, 393.780 885.638, 394.627 885.313 C 396.967 884.415, 394.261 883.034, 390.125 883.015 C 386.825 883, 386.767 883.072, 387.517 886.250 M 415 905.878 C 415 906.360, 415.640 907.286, 416.421 907.935 C 417.588 908.903, 417.746 908.745, 417.305 907.057 C 416.779 905.047, 415 904.137, 415 905.878 M 335 912 C 335 913.100, 335.408 914, 335.906 914 C 336.405 914, 336.577 913.100, 336.290 912 C 336.002 910.900, 335.594 910, 335.383 910 C 335.173 910, 335 910.900, 335 912 M 288.943 952.113 C 287.349 955.271, 285.585 958.139, 285.022 958.486 C 282.835 959.838, 284.178 961, 287.929 961 C 292.561 961, 294.115 959.670, 296.631 953.551 C 297.659 951.052, 298.837 949.006, 299.250 949.004 C 300.582 948.997, 300.048 952.482, 298.145 956.216 L 296.289 959.856 298.547 960.422 C 299.789 960.734, 302.137 960.723, 303.766 960.397 C 306.386 959.873, 306.877 959.181, 308.025 954.397 C 308.738 951.422, 309.128 948.794, 308.890 948.557 C 308.652 948.319, 304.719 947.730, 300.149 947.248 L 291.841 946.372 288.943 952.113 M 407.671 946.724 C 405.488 947.051, 405 947.531, 405.532 948.824 C 405.911 949.746, 406.455 952.413, 406.741 954.750 C 407.236 958.806, 407.414 959, 410.630 959 C 413.888 959, 414 958.869, 414 955.047 C 414 951.178, 412.258 945.853, 411.089 946.150 C 410.765 946.232, 409.227 946.491, 407.671 946.724 M 314.250 947.723 C 311.211 948.100, 311 948.379, 311 952.004 C 311 954.137, 310.550 956.160, 310 956.500 C 308.315 957.541, 308.887 959.829, 311 960.500 C 314.149 961.499, 316.708 960.181, 317.368 957.220 C 317.701 955.724, 318.382 952.813, 318.881 950.750 C 319.534 948.057, 319.467 947.045, 318.645 947.160 C 318.015 947.248, 316.038 947.502, 314.250 947.723 M 320.774 951.750 C 320.543 954.362, 320.002 957.288, 319.570 958.250 C 318.903 959.739, 319.327 960, 322.418 960 C 326.424 960, 327.686 958.152, 328.733 950.750 L 329.263 947 325.228 947 L 321.193 947 320.774 951.750 M 396.627 949.750 C 396.876 951.263, 397.050 953.910, 397.016 955.634 C 396.946 959.117, 398.296 960.048, 402.307 959.282 C 404.842 958.797, 404.950 958.546, 404.302 954.635 C 403.925 952.361, 403.607 949.712, 403.594 948.750 C 403.577 947.403, 402.720 947, 399.874 947 C 396.397 947, 396.203 947.164, 396.627 949.750" stroke="none" fill="black" fill-rule="evenodd"/></g></svg>